<?xml version="1.0" encoding="UTF-8"?>
<svg version="1.1" xmlns="http://www.w3.org/2000/svg" width="448" height="549">
<path d="M0 0 C147.84 0 295.68 0 448 0 C448 181.17 448 362.34 448 549 C300.16 549 152.32 549 0 549 C0 367.83 0 186.66 0 0 Z " fill="#030310" transform="translate(0,0)"/>
<path d="M0 0 C0.77085937 0.65613281 1.54171875 1.31226563 2.3359375 1.98828125 C3.16867187 2.69597656 4.00140625 3.40367187 4.859375 4.1328125 C7.40354274 6.36776601 9.87612062 8.66100601 12.3359375 10.98828125 C13.15964844 11.74753906 13.98335937 12.50679688 14.83203125 13.2890625 C26.22015556 24.14420127 33.90535879 36.74196155 40.3359375 50.98828125 C40.81933594 52.03242188 41.30273438 53.0765625 41.80078125 54.15234375 C53.75336992 82.27180768 52.53632397 116.18247984 41.359375 144.26171875 C36.75480075 155.29360592 31.30704791 166.00141379 23.3359375 174.98828125 C22.27052734 176.21417969 22.27052734 176.21417969 21.18359375 177.46484375 C18.93649091 180.0077191 16.64698212 182.50350425 14.3359375 184.98828125 C13.72234375 185.66761719 13.10875 186.34695313 12.4765625 187.046875 C2.30125863 197.85269983 -10.32309275 204.86879791 -23.6640625 210.98828125 C-24.68113281 211.47167969 -25.69820312 211.95507812 -26.74609375 212.453125 C-47.38918419 221.74392768 -73.68725769 224.33475105 -95.6640625 218.98828125 C-96.33260254 218.84293945 -97.00114258 218.69759766 -97.68994141 218.54785156 C-121.19624757 213.42199329 -140.33140363 202.58275193 -157.6640625 185.98828125 C-158.78361328 184.96347656 -158.78361328 184.96347656 -159.92578125 183.91796875 C-175.73641811 168.96270666 -184.73934745 149.61666869 -190.6640625 128.98828125 C-191.00566406 127.83714844 -191.34726563 126.68601562 -191.69921875 125.5 C-199.48941595 94.08557686 -191.9434504 61.06092492 -175.76171875 33.78125 C-159.05913827 7.71975939 -133.1070196 -12.64481366 -102.6640625 -20.01171875 C-67.55985416 -27.41995708 -28.88655656 -22.73563363 0 0 Z " fill="#C1C1C1" transform="translate(383.6640625,319.01171875)"/>
<path d="M0 0 C78.87 0 157.74 0 239 0 C239 79.86 239 159.72 239 242 C224.28710821 242 211.22360916 241.75393284 197 239 C196.31228516 238.87141602 195.62457031 238.74283203 194.91601562 238.61035156 C146.95735299 229.38030532 104.94990461 204.36801359 70 171 C69.32582031 170.36707031 68.65164063 169.73414063 67.95703125 169.08203125 C63.33576493 164.62996461 59.30895745 159.71403412 55.33349609 154.68408203 C54.40121051 153.50669171 53.46358799 152.33351649 52.52197266 151.16357422 C24.85427252 116.71059724 7.34571498 75.17188903 1.1875 31.4375 C1.0011499 30.16471191 1.0011499 30.16471191 0.81103516 28.86621094 C-0.41644345 19.13703783 0 10.01932833 0 0 Z " fill="#C1C1C1" transform="translate(194,15)"/>
<path d="M0 0 C32.34 0 64.68 0 98 0 C98 27.39 98 54.78 98 83 C114.5 83 131 83 148 83 C148 108.74 148 134.48 148 161 C131.83 161 115.66 161 99 161 C99 188.72 99 216.44 99 245 C66.33 245 33.66 245 0 245 C0 164.15 0 83.3 0 0 Z " fill="#C1C1C1" transform="translate(9,297)"/>
<path d="M0 0 C32.67 0 65.34 0 99 0 C99 80.85 99 161.7 99 245 C66.33 245 33.66 245 0 245 C0 164.15 0 83.3 0 0 Z " fill="#C2C2C2" transform="translate(9,14)"/>
<path d="M0 0 C29.58953944 0 55.54350136 12.05625087 76.8125 32.4375 C97.38719194 53.92662269 107 79.5814126 107 109 C71.69 109 36.38 109 0 109 C0 73.03 0 37.06 0 0 Z " fill="#C1C1C1" transform="translate(145,150)"/>
</svg>
