<?xml version="1.0" encoding="UTF-8"?>
<svg version="1.1" xmlns="http://www.w3.org/2000/svg" width="1920" height="1080">
<path d="M0 0 C22.77 0 45.54 0 69 0 C69 18.81 69 37.62 69 57 C80.22 57 91.44 57 103 57 C103 75.48 103 93.96 103 113 C91.78 113 80.56 113 69 113 C69 132.14 69 151.28 69 171 C46.23 171 23.46 171 0 171 C0 114.57 0 58.14 0 0 Z " fill="#A600D6" transform="translate(196,455)"/>
<path d="M0 0 C22.44 0 44.88 0 68 0 C68 56.43 68 112.86 68 171 C45.56 171 23.12 171 0 171 C0 114.57 0 58.14 0 0 Z " fill="#A600D6" transform="translate(16,455)"/>
<path d="M0 0 C8.89264682 0.30551065 8.89264682 0.30551065 12.64770508 2.83276367 C16.48414111 7.07671351 18.71076369 12.20375306 21.01538086 17.38891602 C23.6087613 22.82249393 26.9582492 27.81402011 30.17114258 32.89672852 C31.38190283 34.85165571 32.58565902 36.81094808 33.78051758 38.77563477 C34.5457373 40.02389038 34.5457373 40.02389038 35.32641602 41.29736328 C36.42114258 43.33422852 36.42114258 43.33422852 36.42114258 45.33422852 C39.34643161 42.73083967 41.14331819 39.71618554 43.15161133 36.37329102 C43.50572586 35.78687836 43.85984039 35.2004657 44.22468567 34.59628296 C45.35676565 32.71969506 46.48287806 30.83961046 47.60864258 28.95922852 C48.34586015 27.73371978 49.08348687 26.50845707 49.8215332 25.28344727 C50.1847467 24.67885178 50.54796021 24.07425629 50.92218018 23.45133972 C51.65949351 22.23094252 52.40264998 21.01405678 53.15155029 19.80073547 C55.01038912 16.77407287 56.7323133 13.75804623 58.26782227 10.55371094 C62.55819321 1.95894753 62.55819321 1.95894753 67.54589844 0.28637695 C71.21748345 -0.02059373 74.62553673 0.09409878 78.29614258 0.39672852 C80.14852539 0.45957031 80.14852539 0.45957031 82.03833008 0.52368164 C91.00896261 0.92204855 91.00896261 0.92204855 93.42114258 3.33422852 C93.67282486 5.26141357 93.67282486 5.26141357 93.67510986 7.66137695 C93.68074951 8.5699646 93.68638916 9.47855225 93.69219971 10.41467285 C93.68815125 11.41421997 93.68410278 12.41376709 93.67993164 13.44360352 C93.68343628 14.4940686 93.68694092 15.54453369 93.69055176 16.62683105 C93.69938236 20.11269666 93.69351517 23.5983607 93.68676758 27.08422852 C93.68811384 29.49796589 93.69005405 31.91170301 93.69256592 34.32543945 C93.69551899 39.38959326 93.69121363 44.45367663 93.68188477 49.51782227 C93.67049019 56.02168383 93.67704868 62.52538034 93.68902969 69.02923584 C93.69624334 74.01506808 93.69396264 79.00086094 93.68877411 83.98669434 C93.68743624 86.38537617 93.68909009 88.78406154 93.69373322 91.18273926 C93.69879028 94.53020756 93.69109964 97.87740544 93.67993164 101.22485352 C93.6839801 102.22440063 93.68802856 103.22394775 93.69219971 104.25378418 C93.68656006 105.16237183 93.68092041 106.07095947 93.67510986 107.00708008 C93.67435581 107.79906799 93.67360176 108.59105591 93.67282486 109.40704346 C93.42114258 111.33422852 93.42114258 111.33422852 91.42114258 113.33422852 C88.83911133 113.59301758 88.83911133 113.59301758 85.60864258 113.59985352 C84.45106445 113.60243164 83.29348633 113.60500977 82.10083008 113.60766602 C80.8865332 113.59993164 79.67223633 113.59219727 78.42114258 113.58422852 C77.2068457 113.59196289 75.99254883 113.59969727 74.74145508 113.60766602 C73.00508789 113.60379883 73.00508789 113.60379883 71.23364258 113.59985352 C70.16758789 113.59759766 69.1015332 113.5953418 68.00317383 113.59301758 C65.42114258 113.33422852 65.42114258 113.33422852 63.42114258 111.33422852 C63.14266968 109.19552612 63.14266968 109.19552612 63.10229492 106.51733398 C63.08242523 105.51644745 63.06255554 104.51556091 63.04208374 103.48434448 C63.03053253 102.40097809 63.01898132 101.31761169 63.00708008 100.20141602 C62.98771393 99.09444366 62.96834778 97.98747131 62.94839478 96.84695435 C62.88847504 93.30112483 62.84216385 89.75526307 62.79614258 86.20922852 C62.75797423 83.80947454 62.71892319 81.40973444 62.67895508 79.01000977 C62.58276342 73.1182055 62.49775243 67.22631816 62.42114258 61.33422852 C61.78033752 62.39111877 61.78033752 62.39111877 61.12658691 63.46936035 C59.37193686 66.36262586 57.61524705 69.25464921 55.85864258 72.14672852 C55.24956055 73.15155273 54.64047852 74.15637695 54.01293945 75.19165039 C41.2957512 96.1178173 41.2957512 96.1178173 37.75317383 96.99438477 C34.42114258 96.33422852 34.42114258 96.33422852 32.85620117 94.60327148 C31.1613646 92.0468529 29.62067596 89.44034772 28.10864258 86.77172852 C27.59108398 85.89581055 27.07352539 85.01989258 26.5402832 84.11743164 C25.44666121 82.26372243 24.36218826 80.40459179 23.28588867 78.54077148 C21.0595818 74.71250302 18.78515866 70.91464132 16.50317383 67.11938477 C16.09999435 66.44862411 15.69681488 65.77786346 15.28141785 65.08677673 C14.32852287 63.50227507 13.37491243 61.91820371 12.42114258 60.33422852 C12.41305573 60.96871918 12.40496887 61.60320984 12.39663696 62.25692749 C12.31078075 68.84279916 12.21128619 75.42836323 12.10375977 82.01391602 C12.06540496 84.47382453 12.03056374 86.93379038 11.99926758 89.39379883 C11.95375807 92.92363015 11.8957406 96.45306446 11.83520508 99.98266602 C11.81787827 101.64052628 11.81787827 101.64052628 11.80020142 103.33187866 C11.78033173 104.35278595 11.76046204 105.37369324 11.73999023 106.42553711 C11.72666656 107.32710541 11.7133429 108.22867371 11.69961548 109.15756226 C11.42114258 111.33422852 11.42114258 111.33422852 9.42114258 113.33422852 C6.9309082 113.59301758 6.9309082 113.59301758 3.82739258 113.59985352 C2.71493164 113.60243164 1.6024707 113.60500977 0.45629883 113.60766602 C-0.71030273 113.59993164 -1.8769043 113.59219727 -3.07885742 113.58422852 C-4.24545898 113.59196289 -5.41206055 113.59969727 -6.61401367 113.60766602 C-7.72647461 113.60508789 -8.83893555 113.60250977 -9.98510742 113.59985352 C-11.00926758 113.59759766 -12.03342773 113.5953418 -13.08862305 113.59301758 C-15.57885742 113.33422852 -15.57885742 113.33422852 -17.57885742 111.33422852 C-17.82774639 109.38863277 -17.82774639 109.38863277 -17.82609558 106.96238708 C-17.83029007 106.04394012 -17.83448456 105.12549316 -17.83880615 104.17921448 C-17.83318665 103.16874557 -17.82756714 102.15827667 -17.82177734 101.1171875 C-17.82367569 100.05536255 -17.82557404 98.9935376 -17.82752991 97.89953613 C-17.83124615 94.37639065 -17.82052202 90.85344955 -17.80932617 87.33032227 C-17.80813483 84.89176966 -17.80768111 82.45321658 -17.80793762 80.0146637 C-17.80637133 74.89923234 -17.79806999 69.78387082 -17.78466797 64.66845703 C-17.76766896 58.09503264 -17.76385379 51.52168503 -17.76461315 44.94824123 C-17.76434189 39.91184245 -17.75886787 34.87546062 -17.75161171 29.83906746 C-17.74841855 27.41444083 -17.74645613 24.98981226 -17.745718 22.56518364 C-17.74356178 19.18404711 -17.73483344 15.8029938 -17.72412109 12.421875 C-17.72457428 11.40938187 -17.72502747 10.39688873 -17.72549438 9.35371399 C-17.7212294 8.43808685 -17.71696442 7.52245972 -17.71257019 6.5790863 C-17.71089435 5.77880225 -17.7092185 4.9785182 -17.70749187 4.15398312 C-17.30756033 -1.50373341 -4.20094822 0.09394744 0 0 Z " fill="#2C0056" transform="translate(755.578857421875,488.665771484375)"/>
<path d="M0 0 C0.90216751 -0.00960754 1.80433502 -0.01921509 2.73384094 -0.02911377 C4.21173347 -0.03548859 4.21173347 -0.03548859 5.71948242 -0.04199219 C6.7328215 -0.04769226 7.74616058 -0.05339233 8.79020691 -0.05926514 C10.94655305 -0.06873926 13.10291382 -0.07525863 15.25927734 -0.07910156 C18.52297359 -0.0887141 21.78601483 -0.11967507 25.04956055 -0.15136719 C39.50552717 -0.22608814 52.87285895 -0.24881183 64.76245117 9.16113281 C71.63089217 16.30547313 75.13106951 24.99016801 74.98120117 34.91894531 C74.28802146 42.0240374 71.52698829 48.18979807 67.76245117 54.16113281 C68.23295898 54.65742187 68.7034668 55.15371094 69.18823242 55.66503906 C75.75229985 62.82707537 78.73390262 69.39752673 78.76245117 79.16113281 C78.13536949 88.70368012 74.59156919 96.80856127 67.63745117 103.47363281 C56.98512237 111.7692517 44.79219552 112.31404458 31.89135742 112.32910156 C30.38604713 112.33409416 30.38604713 112.33409416 28.85032654 112.33918762 C26.74690201 112.34421795 24.6434696 112.34659716 22.54003906 112.34643555 C19.31000998 112.34864302 16.08031155 112.36689641 12.8503418 112.38574219 C10.80151484 112.38867267 8.75268626 112.39065977 6.70385742 112.39160156 C5.25240074 112.40237984 5.25240074 112.40237984 3.7716217 112.41337585 C2.8798674 112.41029922 1.9881131 112.4072226 1.06933594 112.40405273 C-0.10906105 112.40619026 -0.10906105 112.40619026 -1.31126404 112.40837097 C-3.23754883 112.16113281 -3.23754883 112.16113281 -5.23754883 110.16113281 C-5.4864378 108.21553707 -5.4864378 108.21553707 -5.48478699 105.78929138 C-5.48898148 104.87084442 -5.49317596 103.95239746 -5.49749756 103.00611877 C-5.49187805 101.99564987 -5.48625854 100.98518097 -5.48046875 99.9440918 C-5.4823671 98.88226685 -5.48426544 97.82044189 -5.48622131 96.72644043 C-5.48993756 93.20329494 -5.47921343 89.68035385 -5.46801758 86.15722656 C-5.46682623 83.71867395 -5.46637252 81.28012088 -5.46662903 78.84156799 C-5.46506274 73.72613663 -5.45676139 68.61077512 -5.44335938 63.49536133 C-5.42636037 56.92193694 -5.4225452 50.34858933 -5.42330456 43.77514553 C-5.42303329 38.73874675 -5.41755927 33.70236492 -5.41030312 28.66597176 C-5.40710995 26.24134512 -5.40514754 23.81671656 -5.40440941 21.39208794 C-5.40225319 18.0109514 -5.39352485 14.6298981 -5.3828125 11.2487793 C-5.38326569 10.23628616 -5.38371887 9.22379303 -5.38418579 8.18061829 C-5.37992081 7.26499115 -5.37565582 6.34936401 -5.3712616 5.4059906 C-5.36958575 4.60570655 -5.36790991 3.8054225 -5.36618328 2.98088741 C-5.11499549 -0.57259402 -3.07187111 0.02633249 0 0 Z M23.76245117 28.16113281 C23.76245117 32.78113281 23.76245117 37.40113281 23.76245117 42.16113281 C26.34606635 42.21520848 28.92854372 42.25483982 31.51245117 42.28613281 C32.24206055 42.30289063 32.97166992 42.31964844 33.72338867 42.33691406 C39.06679451 42.40827865 39.06679451 42.40827865 43.76245117 40.16113281 C45.18286938 37.3202964 45.07697389 35.30636004 44.76245117 32.16113281 C43.3549374 29.80754012 43.3549374 29.80754012 40.76245117 28.16113281 C37.82910677 27.6761532 34.97522275 27.78338478 32.01245117 27.91113281 C31.21967773 27.92917969 30.4269043 27.94722656 29.61010742 27.96582031 C27.66036769 28.01280199 25.71125239 28.08454237 23.76245117 28.16113281 Z M23.76245117 68.16113281 C23.76245117 73.44113281 23.76245117 78.72113281 23.76245117 84.16113281 C26.82548695 84.24229274 29.88635932 84.3017069 32.94995117 84.34863281 C33.81426758 84.37376953 34.67858398 84.39890625 35.5690918 84.42480469 C40.45080339 84.48091631 43.82977317 84.41603465 47.76245117 81.16113281 C49.18286938 78.3202964 49.07697389 76.30636004 48.76245117 73.16113281 C46.53038686 70.31332662 45.21252119 69.31115615 41.76245117 68.16113281 C40.35420224 68.08091283 38.94247887 68.05347304 37.53198242 68.06347656 C36.32832031 68.06831055 36.32832031 68.06831055 35.1003418 68.07324219 C33.85027344 68.08581055 33.85027344 68.08581055 32.57495117 68.09863281 C31.30748047 68.10540039 31.30748047 68.10540039 30.0144043 68.11230469 C27.93038962 68.12407878 25.8464114 68.14201391 23.76245117 68.16113281 Z " fill="#2C0056" transform="translate(1558.237548828125,489.8388671875)"/>
<path d="M0 0 C1.39780701 -0.00956978 1.39780701 -0.00956978 2.82385254 -0.01933289 C4.34867249 -0.02100212 4.34867249 -0.02100212 5.90429688 -0.02270508 C6.94694702 -0.02603348 7.98959717 -0.02936188 9.06384277 -0.03279114 C11.27986204 -0.03786815 13.49588899 -0.04019923 15.71191406 -0.04003906 C19.08086078 -0.04220915 22.44947139 -0.06031104 25.81835938 -0.0793457 C27.97200409 -0.08228286 30.12565036 -0.0842655 32.27929688 -0.08520508 C33.77982605 -0.09598335 33.77982605 -0.09598335 35.31066895 -0.10697937 C48.75863704 -0.06374992 58.4340752 3.29887351 68.28710938 12.60620117 C75.61761302 20.57413991 78.24395121 29.4327538 78.62304688 40.14526367 C77.93067778 53.04697076 71.92788102 61.6630573 62.62304688 70.14526367 C61.96304687 70.80526367 61.30304688 71.46526367 60.62304688 72.14526367 C62.83031027 75.93755412 65.03905675 79.72897881 67.24804688 83.52026367 C68.17423828 85.11161133 68.17423828 85.11161133 69.11914062 86.73510742 C70.03759766 88.31098633 70.03759766 88.31098633 70.97460938 89.91870117 C71.58079102 90.96638672 72.18697266 92.01407227 72.81152344 93.09350586 C73.98606114 95.0721745 75.19977148 97.02830609 76.45800781 98.95483398 C77.01520508 99.81431641 77.57240234 100.67379883 78.14648438 101.55932617 C78.64841309 102.3039209 79.1503418 103.04851562 79.66748047 103.81567383 C80.62304688 106.14526367 80.62304688 106.14526367 79.62304688 112.14526367 C70.05304688 112.14526367 60.48304687 112.14526367 50.62304688 112.14526367 C49.50285156 110.18202148 48.38265625 108.2187793 47.22851562 106.19604492 C46.1364432 104.28296533 45.0441827 102.36999324 43.9519043 100.45703125 C43.19617388 99.13325021 42.4406373 97.8093585 41.68530273 96.48535156 C40.59605729 94.57612042 39.50610244 92.66729578 38.41601562 90.75854492 C38.08151901 90.17188553 37.7470224 89.58522614 37.40238953 88.98078918 C35.93488838 86.41257562 34.45021263 83.8678301 32.88598633 81.35693359 C31.62304688 79.14526367 31.62304688 79.14526367 31.62304688 77.14526367 C28.98304687 77.14526367 26.34304688 77.14526367 23.62304688 77.14526367 C23.63352051 78.13445801 23.64399414 79.12365234 23.65478516 80.14282227 C23.69093706 83.80668531 23.71392969 87.47053253 23.73291016 91.13452148 C23.74297875 92.7214625 23.75663454 94.30838492 23.77392578 95.89526367 C23.79813689 98.17395614 23.8095211 100.45240373 23.81835938 102.73120117 C23.82868195 103.44271332 23.83900452 104.15422546 23.84963989 104.88729858 C23.85004109 106.64158032 23.74506896 108.39523076 23.62304688 110.14526367 C20.97605071 112.79225984 19.71910278 112.40276135 16.02929688 112.41088867 C14.91683594 112.4134668 13.804375 112.41604492 12.65820312 112.41870117 C11.49160156 112.4109668 10.325 112.40323242 9.12304688 112.39526367 C7.95644531 112.40299805 6.78984375 112.41073242 5.58789062 112.41870117 C4.47542969 112.41612305 3.36296875 112.41354492 2.21679688 112.41088867 C1.19263672 112.40863281 0.16847656 112.40637695 -0.88671875 112.40405273 C-3.37695312 112.14526367 -3.37695312 112.14526367 -5.37695312 110.14526367 C-5.62584209 108.19966793 -5.62584209 108.19966793 -5.62419128 105.77342224 C-5.62838577 104.85497528 -5.63258026 103.93652832 -5.63690186 102.99024963 C-5.63128235 101.97978073 -5.62566284 100.96931183 -5.61987305 99.92822266 C-5.62177139 98.86639771 -5.62366974 97.80457275 -5.62562561 96.71057129 C-5.62934186 93.1874258 -5.61861773 89.66448471 -5.60742188 86.14135742 C-5.60623053 83.70280481 -5.60577682 81.26425174 -5.60603333 78.82569885 C-5.60446703 73.71026749 -5.59616569 68.59490598 -5.58276367 63.47949219 C-5.56576466 56.9060678 -5.5619495 50.33272019 -5.56270885 43.75927639 C-5.56243759 38.72287761 -5.55696357 33.68649578 -5.54970741 28.65010262 C-5.54651425 26.22547598 -5.54455184 23.80084742 -5.54381371 21.3762188 C-5.54165749 17.99508226 -5.53292914 14.61402896 -5.5222168 11.23291016 C-5.52266998 10.22041702 -5.52312317 9.20792389 -5.52359009 8.16474915 C-5.5193251 7.24912201 -5.51506012 6.33349487 -5.51066589 5.39012146 C-5.50899005 4.58983741 -5.50731421 3.78955336 -5.50558758 2.96501827 C-5.25066191 -0.64134175 -3.10331979 0.01436722 0 0 Z M23.62304688 28.14526367 C23.62304688 35.40526367 23.62304688 42.66526367 23.62304688 50.14526367 C26.65492187 50.24838867 29.68679688 50.35151367 32.81054688 50.45776367 C33.75696045 50.50328369 34.70337402 50.54880371 35.6784668 50.59570312 C40.16426303 50.66950616 42.02791081 50.61238071 45.67382812 47.75073242 C48.38399515 44.12812439 49.01585017 41.83876609 48.98242188 37.25073242 C48.34722874 33.52932914 46.28325671 31.74213518 43.62304688 29.14526367 C41.32650988 27.99699517 40.0399152 28.02965192 37.49023438 28.04760742 C36.76433105 28.05010498 36.03842773 28.05260254 35.29052734 28.05517578 C34.36900879 28.06427979 33.44749023 28.07338379 32.49804688 28.08276367 C28.10492187 28.11370117 28.10492187 28.11370117 23.62304688 28.14526367 Z " fill="#2C0056" transform="translate(1088.376953125,489.854736328125)"/>
<path d="M0 0 C1.39780701 -0.00956978 1.39780701 -0.00956978 2.82385254 -0.01933289 C4.34867249 -0.02100212 4.34867249 -0.02100212 5.90429688 -0.02270508 C6.94694702 -0.02603348 7.98959717 -0.02936188 9.06384277 -0.03279114 C11.27986204 -0.03786815 13.49588899 -0.04019923 15.71191406 -0.04003906 C19.08086078 -0.04220915 22.44947139 -0.06031104 25.81835938 -0.0793457 C27.97200409 -0.08228286 30.12565036 -0.0842655 32.27929688 -0.08520508 C33.77982605 -0.09598335 33.77982605 -0.09598335 35.31066895 -0.10697937 C48.75863704 -0.06374992 58.4340752 3.29887351 68.28710938 12.60620117 C75.61761302 20.57413991 78.24395121 29.4327538 78.62304688 40.14526367 C77.93067778 53.04697076 71.92788102 61.6630573 62.62304688 70.14526367 C61.96304688 70.80526367 61.30304688 71.46526367 60.62304688 72.14526367 C62.83031027 75.93755412 65.03905675 79.72897881 67.24804688 83.52026367 C68.17423828 85.11161133 68.17423828 85.11161133 69.11914062 86.73510742 C70.03759766 88.31098633 70.03759766 88.31098633 70.97460938 89.91870117 C71.58079102 90.96638672 72.18697266 92.01407227 72.81152344 93.09350586 C73.98606114 95.0721745 75.19977148 97.02830609 76.45800781 98.95483398 C77.01520508 99.81431641 77.57240234 100.67379883 78.14648438 101.55932617 C78.64841309 102.3039209 79.1503418 103.04851562 79.66748047 103.81567383 C80.62304688 106.14526367 80.62304688 106.14526367 79.62304688 112.14526367 C70.05304688 112.14526367 60.48304688 112.14526367 50.62304688 112.14526367 C49.50285156 110.18202148 48.38265625 108.2187793 47.22851562 106.19604492 C46.1364432 104.28296533 45.0441827 102.36999324 43.9519043 100.45703125 C43.19617388 99.13325021 42.4406373 97.8093585 41.68530273 96.48535156 C40.59605729 94.57612042 39.50610244 92.66729578 38.41601562 90.75854492 C38.08151901 90.17188553 37.7470224 89.58522614 37.40238953 88.98078918 C35.93488838 86.41257562 34.45021263 83.8678301 32.88598633 81.35693359 C31.62304688 79.14526367 31.62304688 79.14526367 31.62304688 77.14526367 C28.98304688 77.14526367 26.34304688 77.14526367 23.62304688 77.14526367 C23.63352051 78.13445801 23.64399414 79.12365234 23.65478516 80.14282227 C23.69093706 83.80668531 23.71392969 87.47053253 23.73291016 91.13452148 C23.74297875 92.7214625 23.75663454 94.30838492 23.77392578 95.89526367 C23.79813689 98.17395614 23.8095211 100.45240373 23.81835938 102.73120117 C23.82868195 103.44271332 23.83900452 104.15422546 23.84963989 104.88729858 C23.85004109 106.64158032 23.74506896 108.39523076 23.62304688 110.14526367 C20.97605071 112.79225984 19.71910278 112.40276135 16.02929688 112.41088867 C14.91683594 112.4134668 13.804375 112.41604492 12.65820312 112.41870117 C11.49160156 112.4109668 10.325 112.40323242 9.12304688 112.39526367 C7.95644531 112.40299805 6.78984375 112.41073242 5.58789062 112.41870117 C4.47542969 112.41612305 3.36296875 112.41354492 2.21679688 112.41088867 C1.19263672 112.40863281 0.16847656 112.40637695 -0.88671875 112.40405273 C-3.37695312 112.14526367 -3.37695312 112.14526367 -5.37695312 110.14526367 C-5.62584209 108.19966793 -5.62584209 108.19966793 -5.62419128 105.77342224 C-5.62838577 104.85497528 -5.63258026 103.93652832 -5.63690186 102.99024963 C-5.63128235 101.97978073 -5.62566284 100.96931183 -5.61987305 99.92822266 C-5.62177139 98.86639771 -5.62366974 97.80457275 -5.62562561 96.71057129 C-5.62934186 93.1874258 -5.61861773 89.66448471 -5.60742188 86.14135742 C-5.60623053 83.70280481 -5.60577682 81.26425174 -5.60603333 78.82569885 C-5.60446703 73.71026749 -5.59616569 68.59490598 -5.58276367 63.47949219 C-5.56576466 56.9060678 -5.5619495 50.33272019 -5.56270885 43.75927639 C-5.56243759 38.72287761 -5.55696357 33.68649578 -5.54970741 28.65010262 C-5.54651425 26.22547598 -5.54455184 23.80084742 -5.54381371 21.3762188 C-5.54165749 17.99508226 -5.53292914 14.61402896 -5.5222168 11.23291016 C-5.52266998 10.22041702 -5.52312317 9.20792389 -5.52359009 8.16474915 C-5.5193251 7.24912201 -5.51506012 6.33349487 -5.51066589 5.39012146 C-5.50899005 4.58983741 -5.50731421 3.78955336 -5.50558758 2.96501827 C-5.25066191 -0.64134175 -3.10331979 0.01436722 0 0 Z M23.62304688 28.14526367 C23.62304688 35.40526367 23.62304688 42.66526367 23.62304688 50.14526367 C26.65492188 50.24838867 29.68679688 50.35151367 32.81054688 50.45776367 C33.75696045 50.50328369 34.70337402 50.54880371 35.6784668 50.59570312 C40.16426303 50.66950616 42.02791081 50.61238071 45.67382812 47.75073242 C48.38399515 44.12812439 49.01585017 41.83876609 48.98242188 37.25073242 C48.34722874 33.52932914 46.28325671 31.74213518 43.62304688 29.14526367 C41.32650988 27.99699517 40.0399152 28.02965192 37.49023438 28.04760742 C36.76433105 28.05010498 36.03842773 28.05260254 35.29052734 28.05517578 C34.36900879 28.06427979 33.44749023 28.07338379 32.49804688 28.08276367 C28.10492188 28.11370117 28.10492188 28.11370117 23.62304688 28.14526367 Z " fill="#2C0056" transform="translate(452.376953125,489.854736328125)"/>
<path d="M0 0 C11.55 0 23.1 0 35 0 C42.7286599 21.80627946 50.40535273 43.62756963 57.86672592 65.52686691 C59.27877056 69.67086225 60.69710588 73.81249125 62.12890625 77.94970703 C63.54997865 82.05634708 64.95647045 86.16770304 66.35246658 90.28293228 C66.87921696 91.82767443 67.4111051 93.37067503 67.94834518 94.91180038 C68.68715716 97.03420205 69.40703976 99.16213355 70.12255859 101.29248047 C70.53492767 102.49564911 70.94729675 103.69881775 71.37216187 104.93844604 C72 108 72 108 70 112 C60.43 112 50.86 112 41 112 C37 102 37 102 36 95 C24.12 95.33 12.24 95.66 0 96 C-1.65 101.28 -3.3 106.56 -5 112 C-14.9 112 -24.8 112 -35 112 C-36.12501848 104.12487065 -36.12501848 104.12487065 -34.31616211 98.87329102 C-33.92036453 97.70029449 -33.52456696 96.52729797 -33.11677551 95.3187561 C-32.67061579 94.04702804 -32.22412893 92.77541471 -31.77734375 91.50390625 C-31.31903785 90.16453371 -30.86205036 88.82470939 -30.40629578 87.48446655 C-29.18603645 83.90847104 -27.94723763 80.3391644 -26.70453644 76.77091599 C-25.42627852 73.09061467 -24.16510456 69.4044678 -22.90185547 65.71899414 C-20.17989575 57.78901183 -17.43288661 49.86786356 -14.67792511 41.94929504 C-13.64369603 38.97548925 -12.61178479 36.00087953 -11.57958984 33.02636719 C-7.75190259 22.00595156 -3.88283353 11.00136167 0 0 Z M17 40 C15.66197735 44.123494 14.33037699 48.24903352 13 52.375 C12.42765625 54.1384375 12.42765625 54.1384375 11.84375 55.9375 C11.4828125 57.05898438 11.121875 58.18046875 10.75 59.3359375 C10.41484375 60.37282715 10.0796875 61.4097168 9.734375 62.47802734 C8.90680706 64.88225441 8.90680706 64.88225441 9 67 C14.61 67 20.22 67 26 67 C24.68764148 60.63569826 22.98780585 54.57878972 20.875 48.4375 C20.59785156 47.61958984 20.32070312 46.80167969 20.03515625 45.95898438 C19.36094863 43.97123432 18.68107796 41.98540651 18 40 C17.67 40 17.34 40 17 40 Z " fill="#2C0056" transform="translate(1418,490)"/>
<path d="M0 0 C11.55 0 23.1 0 35 0 C42.7286599 21.80627946 50.40535273 43.62756963 57.86672592 65.52686691 C59.27877056 69.67086225 60.69710588 73.81249125 62.12890625 77.94970703 C63.54997865 82.05634708 64.95647045 86.16770304 66.35246658 90.28293228 C66.87921696 91.82767443 67.4111051 93.37067503 67.94834518 94.91180038 C68.68715716 97.03420205 69.40703976 99.16213355 70.12255859 101.29248047 C70.53492767 102.49564911 70.94729675 103.69881775 71.37216187 104.93844604 C72 108 72 108 70 112 C60.43 112 50.86 112 41 112 C37 102 37 102 36 95 C24.12 95.33 12.24 95.66 0 96 C-1.65 101.28 -3.3 106.56 -5 112 C-14.9 112 -24.8 112 -35 112 C-36.12501848 104.12487065 -36.12501848 104.12487065 -34.31616211 98.87329102 C-33.92036453 97.70029449 -33.52456696 96.52729797 -33.11677551 95.3187561 C-32.67061579 94.04702804 -32.22412893 92.77541471 -31.77734375 91.50390625 C-31.31903785 90.16453371 -30.86205036 88.82470939 -30.40629578 87.48446655 C-29.18603645 83.90847104 -27.94723763 80.3391644 -26.70453644 76.77091599 C-25.42627852 73.09061467 -24.16510456 69.4044678 -22.90185547 65.71899414 C-20.17989575 57.78901183 -17.43288661 49.86786356 -14.67792511 41.94929504 C-13.64369603 38.97548925 -12.61178479 36.00087953 -11.57958984 33.02636719 C-7.75190259 22.00595156 -3.88283353 11.00136167 0 0 Z M17 40 C15.66197735 44.123494 14.33037699 48.24903352 13 52.375 C12.42765625 54.1384375 12.42765625 54.1384375 11.84375 55.9375 C11.4828125 57.05898438 11.121875 58.18046875 10.75 59.3359375 C10.41484375 60.37282715 10.0796875 61.4097168 9.734375 62.47802734 C8.90680706 64.88225441 8.90680706 64.88225441 9 67 C14.61 67 20.22 67 26 67 C24.68764148 60.63569826 22.98780585 54.57878972 20.875 48.4375 C20.59785156 47.61958984 20.32070313 46.80167969 20.03515625 45.95898438 C19.36094863 43.97123432 18.68107796 41.98540651 18 40 C17.67 40 17.34 40 17 40 Z " fill="#2C0056" transform="translate(948,490)"/>
<path d="M0 0 C1.21880859 -0.01224609 2.43761719 -0.02449219 3.69335938 -0.03710938 C5.43649414 -0.04000977 5.43649414 -0.04000977 7.21484375 -0.04296875 C8.28726318 -0.04707764 9.35968262 -0.05118652 10.46459961 -0.05541992 C13.0625 0.1875 13.0625 0.1875 15.0625 2.1875 C15.30806371 4.90750357 15.43606486 7.53324257 15.4765625 10.2578125 C15.49592865 11.05404022 15.5152948 11.85026794 15.5352478 12.67062378 C15.59510474 15.21780634 15.64145279 17.76503395 15.6875 20.3125 C15.72567421 22.0377803 15.76472561 23.76304143 15.8046875 25.48828125 C15.90081109 29.72119876 15.98481908 33.95420549 16.0625 38.1875 C17.36685378 36.39347187 18.67004989 34.59859433 19.96850586 32.80029297 C21.13149018 31.20174699 22.30720532 29.6123985 23.49438477 28.03173828 C26.7290837 23.67212961 29.55416048 19.39725607 31.98828125 14.5390625 C37.81254814 3.58435271 37.81254814 3.58435271 43.0625 0.1875 C52.84504109 -2.20465487 63.1752956 -1.05197596 73.0625 0.1875 C74.1628418 2.50073242 74.1628418 2.50073242 75.0625 5.1875 C73.77286019 7.58792446 72.55475752 9.39992835 70.875 11.5 C69.92799943 12.75132843 68.98274872 14.00398267 68.0390625 15.2578125 C67.2970459 16.22895996 67.2970459 16.22895996 66.54003906 17.21972656 C64.17530337 20.36906062 61.96473199 23.61926255 59.75 26.875 C58.84128369 28.20191733 57.93242566 29.52873762 57.0234375 30.85546875 C56.03644837 32.29947236 55.0494699 33.74348325 54.0625 35.1875 C52.86730922 36.93367707 51.67199142 38.6797672 50.4765625 40.42578125 C47.33703105 45.01198852 44.19918983 49.59934885 41.0625 54.1875 C43.88862103 59.45379601 46.80730276 64.44026251 50.375 69.25 C56.02064562 76.96630911 61.26950916 84.94123772 66.52856445 92.92407227 C67.18687256 93.91979248 67.84518066 94.9155127 68.5234375 95.94140625 C69.10915527 96.83158447 69.69487305 97.7217627 70.29833984 98.63891602 C72.05921731 101.26758296 72.05921731 101.26758296 74.29541016 103.84350586 C76.0625 106.1875 76.0625 106.1875 75.875 108.9375 C75.0625 111.1875 75.0625 111.1875 74.0625 112.1875 C51.2586268 115.26968297 51.2586268 115.26968297 42.87158203 111.09765625 C39.33611386 108.01572686 37.43664541 103.95587972 35.42382812 99.78759766 C32.58701442 94.36936488 28.93799225 89.42366807 25.5 84.375 C23.52308277 81.37968456 21.55167231 78.38086277 19.58374023 75.37963867 C18.10819955 73.11467143 18.10819955 73.11467143 16.0625 71.1875 C16.04268066 72.35845215 16.02286133 73.5294043 16.00244141 74.73583984 C15.92649919 79.07086074 15.8377648 83.40554095 15.74511719 87.74023438 C15.70678023 89.61809576 15.67193573 91.49603176 15.640625 93.37402344 C15.59507637 96.06993321 15.53706625 98.76532712 15.4765625 101.4609375 C15.45923569 102.72506973 15.45923569 102.72506973 15.44155884 104.01473999 C15.29024341 109.95975659 15.29024341 109.95975659 13.0625 112.1875 C10.57226562 112.44628906 10.57226562 112.44628906 7.46875 112.453125 C6.35628906 112.45570313 5.24382812 112.45828125 4.09765625 112.4609375 C2.93105469 112.45320312 1.76445313 112.44546875 0.5625 112.4375 C-0.60410156 112.44523438 -1.77070312 112.45296875 -2.97265625 112.4609375 C-4.08511719 112.45835937 -5.19757813 112.45578125 -6.34375 112.453125 C-7.36791016 112.45086914 -8.39207031 112.44861328 -9.44726562 112.44628906 C-11.9375 112.1875 -11.9375 112.1875 -13.9375 110.1875 C-14.18638897 108.24190426 -14.18638897 108.24190426 -14.18473816 105.81565857 C-14.18893265 104.89721161 -14.19312714 103.97876465 -14.19744873 103.03248596 C-14.19182922 102.02201706 -14.18620972 101.01154816 -14.18041992 99.97045898 C-14.18231827 98.90863403 -14.18421661 97.84680908 -14.18617249 96.75280762 C-14.18988873 93.22966213 -14.1791646 89.70672103 -14.16796875 86.18359375 C-14.16677741 83.74504114 -14.16632369 81.30648807 -14.1665802 78.86793518 C-14.16501391 73.75250382 -14.15671257 68.63714231 -14.14331055 63.52172852 C-14.12631154 56.94830412 -14.12249637 50.37495651 -14.12325573 43.80151272 C-14.12298447 38.76511393 -14.11751045 33.72873211 -14.11025429 28.69233894 C-14.10706112 26.26771231 -14.10509871 23.84308375 -14.10436058 21.41845512 C-14.10220436 18.03731859 -14.09347602 14.65626529 -14.08276367 11.27514648 C-14.08321686 10.26265335 -14.08367004 9.25016022 -14.08413696 8.20698547 C-14.07987198 7.29135834 -14.07560699 6.3757312 -14.07121277 5.43235779 C-14.06953692 4.63207374 -14.06786108 3.83178968 -14.06613445 3.0072546 C-13.69703605 -2.21427432 -3.860301 0.00203495 0 0 Z " fill="#2C0056" transform="translate(1248.9375,489.8125)"/>
<path d="M0 0 C0.99026436 -0.00503792 0.99026436 -0.00503792 2.00053406 -0.01017761 C4.19316465 -0.01971328 6.38571908 -0.02163203 8.57836914 -0.02270508 C10.09672579 -0.02591588 11.61508213 -0.02927981 13.13343811 -0.03279114 C16.32041135 -0.03878898 19.50735745 -0.04063037 22.69433594 -0.04003906 C26.78472139 -0.03993741 30.87493336 -0.05358976 34.96527767 -0.07081127 C38.10247095 -0.08191204 41.23962205 -0.08395887 44.37683296 -0.08342934 C45.88516399 -0.08461236 47.393496 -0.08905208 48.90180779 -0.0967617 C51.00888198 -0.10652294 53.11557637 -0.10369915 55.22265625 -0.09765625 C57.02348915 -0.09979378 57.02348915 -0.09979378 58.86070251 -0.10197449 C61.67602539 0.14526367 61.67602539 0.14526367 63.67602539 2.14526367 C63.93481445 4.63549805 63.93481445 4.63549805 63.94165039 7.73901367 C63.94551758 9.40770508 63.94551758 9.40770508 63.94946289 11.11010742 C63.94172852 12.27670898 63.93399414 13.44331055 63.92602539 14.64526367 C63.93762695 16.39516602 63.93762695 16.39516602 63.94946289 18.18041992 C63.94688477 19.29288086 63.94430664 20.4053418 63.94165039 21.55151367 C63.93939453 22.57567383 63.93713867 23.59983398 63.93481445 24.6550293 C63.67602539 27.14526367 63.67602539 27.14526367 61.67602539 29.14526367 C58.66293588 29.3207285 55.74292085 29.37653812 52.73071289 29.34057617 C51.84570099 29.33774628 50.96068909 29.33491638 50.04885864 29.33200073 C47.21611127 29.32078608 44.38367755 29.29567938 41.55102539 29.27026367 C39.6330612 29.26023552 37.71509206 29.25110939 35.79711914 29.24291992 C31.08996663 29.22084256 26.38304923 29.18630412 21.67602539 29.14526367 C21.67602539 33.10526367 21.67602539 37.06526367 21.67602539 41.14526367 C22.75609863 41.13479004 23.83617187 41.12431641 24.94897461 41.11352539 C28.94828998 41.07738173 32.94759085 41.05438383 36.94702148 41.03540039 C38.67946804 41.02532992 40.41189755 41.01167278 42.14428711 40.99438477 C44.63147178 40.97018205 47.11843214 40.95879129 49.60571289 40.94995117 C50.77141312 40.93446732 50.77141312 40.93446732 51.96066284 40.91867065 C53.86728032 40.91827096 55.77333575 41.02294227 57.67602539 41.14526367 C59.67602539 43.14526367 59.67602539 43.14526367 59.91894531 45.65136719 C59.91483643 46.68189209 59.91072754 47.71241699 59.90649414 48.77416992 C59.90456055 49.89114258 59.90262695 51.00811523 59.90063477 52.15893555 C59.88838867 53.33004883 59.87614258 54.50116211 59.86352539 55.70776367 C59.86255859 57.47023438 59.86255859 57.47023438 59.86157227 59.26831055 C59.8161468 68.00514227 59.8161468 68.00514227 58.67602539 69.14526367 C55.93708454 69.23385013 53.22349269 69.26049846 50.48461914 69.24291992 C49.66478043 69.24150497 48.84494171 69.24009003 48.0002594 69.2386322 C45.37131157 69.23301656 42.74244766 69.22046146 40.11352539 69.20776367 C38.33553183 69.20275068 36.55753693 69.19818743 34.77954102 69.1940918 C30.41166994 69.18304206 26.04386191 69.16576698 21.67602539 69.14526367 C21.67602539 73.76526367 21.67602539 78.38526367 21.67602539 83.14526367 C23.53118774 83.13740845 23.53118774 83.13740845 25.42382812 83.12939453 C29.99527264 83.11134806 34.56671398 83.09983297 39.13818359 83.09033203 C41.11995981 83.085291 43.10173228 83.07845829 45.08349609 83.06982422 C47.92554648 83.05774852 50.76754786 83.05203322 53.60961914 83.04760742 C54.50128281 83.04244614 55.39294647 83.03728485 56.31163025 83.03196716 C58.4334314 83.03177191 60.55513319 83.08316337 62.67602539 83.14526367 C65.32143136 85.79066964 63.86164692 93.51930553 63.86352539 97.08276367 C63.87577148 98.30157227 63.88801758 99.52038086 63.90063477 100.77612305 C63.90256836 101.93821289 63.90450195 103.10030273 63.90649414 104.29760742 C63.91060303 105.37002686 63.91471191 106.44244629 63.91894531 107.54736328 C63.67602539 110.14526367 63.67602539 110.14526367 61.67602539 112.14526367 C58.90539551 112.39923096 58.90539551 112.39923096 55.33032227 112.40405273 C54.35446922 112.40930969 54.35446922 112.40930969 53.35890198 112.41467285 C51.20408522 112.42348996 49.04959561 112.4176413 46.89477539 112.41088867 C45.40026791 112.41223533 43.90576086 112.41417587 42.41125488 112.41668701 C39.27730137 112.41963824 36.14346177 112.41534075 33.00952148 112.40600586 C28.98752526 112.39461124 24.96579594 112.40117073 20.94380951 112.41315079 C17.85721822 112.42036947 14.77069046 112.41808144 11.68409729 112.4128952 C10.20089181 112.41155873 8.71768061 112.41320636 7.23448181 112.41785431 C5.16340808 112.42291979 3.09276973 112.41520951 1.02172852 112.40405273 C-0.15804565 112.40246155 -1.33781982 112.40087036 -2.55334473 112.39923096 C-5.32397461 112.14526367 -5.32397461 112.14526367 -7.32397461 110.14526367 C-7.57286358 108.19966793 -7.57286358 108.19966793 -7.57121277 105.77342224 C-7.57540726 104.85497528 -7.57960175 103.93652832 -7.58392334 102.99024963 C-7.57830383 101.97978073 -7.57268433 100.96931183 -7.56689453 99.92822266 C-7.56879288 98.86639771 -7.57069122 97.80457275 -7.57264709 96.71057129 C-7.57636334 93.1874258 -7.56563921 89.66448471 -7.55444336 86.14135742 C-7.55325201 83.70280481 -7.5527983 81.26425174 -7.55305481 78.82569885 C-7.55148852 73.71026749 -7.54318718 68.59490598 -7.52978516 63.47949219 C-7.51278615 56.9060678 -7.50897098 50.33272019 -7.50973034 43.75927639 C-7.50945908 38.72287761 -7.50398506 33.68649578 -7.4967289 28.65010262 C-7.49353573 26.22547598 -7.49157332 23.80084742 -7.49083519 21.3762188 C-7.48867897 17.99508226 -7.47995063 14.61402896 -7.46923828 11.23291016 C-7.46969147 10.22041702 -7.47014465 9.20792389 -7.47061157 8.16474915 C-7.46634659 7.24912201 -7.4620816 6.33349487 -7.45768738 5.39012146 C-7.45601153 4.58983741 -7.45433569 3.78955336 -7.45260906 2.96501827 C-7.15571811 -1.23501264 -3.40824057 0.01082844 0 0 Z " fill="#2C0056" transform="translate(1841.323974609375,489.854736328125)"/>
<path d="M0 0 C0.99026436 -0.00503792 0.99026436 -0.00503792 2.00053406 -0.01017761 C4.19316465 -0.01971328 6.38571908 -0.02163203 8.57836914 -0.02270508 C10.09672579 -0.02591588 11.61508213 -0.02927981 13.13343811 -0.03279114 C16.32041135 -0.03878898 19.50735745 -0.04063037 22.69433594 -0.04003906 C26.78472139 -0.03993741 30.87493336 -0.05358976 34.96527767 -0.07081127 C38.10247095 -0.08191204 41.23962205 -0.08395887 44.37683296 -0.08342934 C45.88516399 -0.08461236 47.393496 -0.08905208 48.90180779 -0.0967617 C51.00888198 -0.10652294 53.11557637 -0.10369915 55.22265625 -0.09765625 C57.02348915 -0.09979378 57.02348915 -0.09979378 58.86070251 -0.10197449 C61.67602539 0.14526367 61.67602539 0.14526367 63.67602539 2.14526367 C63.93481445 4.63549805 63.93481445 4.63549805 63.94165039 7.73901367 C63.94551758 9.40770508 63.94551758 9.40770508 63.94946289 11.11010742 C63.94172852 12.27670898 63.93399414 13.44331055 63.92602539 14.64526367 C63.93762695 16.39516602 63.93762695 16.39516602 63.94946289 18.18041992 C63.94688477 19.29288086 63.94430664 20.4053418 63.94165039 21.55151367 C63.93939453 22.57567383 63.93713867 23.59983398 63.93481445 24.6550293 C63.67602539 27.14526367 63.67602539 27.14526367 61.67602539 29.14526367 C58.66293588 29.3207285 55.74292085 29.37653812 52.73071289 29.34057617 C51.84570099 29.33774628 50.96068909 29.33491638 50.04885864 29.33200073 C47.21611127 29.32078608 44.38367755 29.29567938 41.55102539 29.27026367 C39.6330612 29.26023552 37.71509206 29.25110939 35.79711914 29.24291992 C31.08996663 29.22084256 26.38304923 29.18630412 21.67602539 29.14526367 C21.67602539 33.10526367 21.67602539 37.06526367 21.67602539 41.14526367 C22.75609863 41.13479004 23.83617187 41.12431641 24.94897461 41.11352539 C28.94828998 41.07738173 32.94759085 41.05438383 36.94702148 41.03540039 C38.67946804 41.02532992 40.41189755 41.01167278 42.14428711 40.99438477 C44.63147178 40.97018205 47.11843214 40.95879129 49.60571289 40.94995117 C50.77141312 40.93446732 50.77141312 40.93446732 51.96066284 40.91867065 C53.86728032 40.91827096 55.77333575 41.02294227 57.67602539 41.14526367 C59.67602539 43.14526367 59.67602539 43.14526367 59.91894531 45.65136719 C59.91483643 46.68189209 59.91072754 47.71241699 59.90649414 48.77416992 C59.90456055 49.89114258 59.90262695 51.00811523 59.90063477 52.15893555 C59.88838867 53.33004883 59.87614258 54.50116211 59.86352539 55.70776367 C59.86255859 57.47023438 59.86255859 57.47023438 59.86157227 59.26831055 C59.8161468 68.00514227 59.8161468 68.00514227 58.67602539 69.14526367 C55.93708454 69.23385013 53.22349269 69.26049846 50.48461914 69.24291992 C49.66478043 69.24150497 48.84494171 69.24009003 48.0002594 69.2386322 C45.37131157 69.23301656 42.74244766 69.22046146 40.11352539 69.20776367 C38.33553183 69.20275068 36.55753693 69.19818743 34.77954102 69.1940918 C30.41166994 69.18304206 26.04386191 69.16576698 21.67602539 69.14526367 C21.67602539 73.76526367 21.67602539 78.38526367 21.67602539 83.14526367 C23.53118774 83.13740845 23.53118774 83.13740845 25.42382812 83.12939453 C29.99527264 83.11134806 34.56671398 83.09983297 39.13818359 83.09033203 C41.11995981 83.085291 43.10173228 83.07845829 45.08349609 83.06982422 C47.92554648 83.05774852 50.76754786 83.05203322 53.60961914 83.04760742 C54.50128281 83.04244614 55.39294647 83.03728485 56.31163025 83.03196716 C58.4334314 83.03177191 60.55513319 83.08316337 62.67602539 83.14526367 C65.32143136 85.79066964 63.86164692 93.51930553 63.86352539 97.08276367 C63.87577148 98.30157227 63.88801758 99.52038086 63.90063477 100.77612305 C63.90256836 101.93821289 63.90450195 103.10030273 63.90649414 104.29760742 C63.91060303 105.37002686 63.91471191 106.44244629 63.91894531 107.54736328 C63.67602539 110.14526367 63.67602539 110.14526367 61.67602539 112.14526367 C58.90539551 112.39923096 58.90539551 112.39923096 55.33032227 112.40405273 C54.35446922 112.40930969 54.35446922 112.40930969 53.35890198 112.41467285 C51.20408522 112.42348996 49.04959561 112.4176413 46.89477539 112.41088867 C45.40026791 112.41223533 43.90576086 112.41417587 42.41125488 112.41668701 C39.27730137 112.41963824 36.14346177 112.41534075 33.00952148 112.40600586 C28.98752526 112.39461124 24.96579594 112.40117073 20.94380951 112.41315079 C17.85721822 112.42036947 14.77069046 112.41808144 11.68409729 112.4128952 C10.20089181 112.41155873 8.71768061 112.41320636 7.23448181 112.41785431 C5.16340808 112.42291979 3.09276973 112.41520951 1.02172852 112.40405273 C-0.15804565 112.40246155 -1.33781982 112.40087036 -2.55334473 112.39923096 C-5.32397461 112.14526367 -5.32397461 112.14526367 -7.32397461 110.14526367 C-7.57286358 108.19966793 -7.57286358 108.19966793 -7.57121277 105.77342224 C-7.57540726 104.85497528 -7.57960175 103.93652832 -7.58392334 102.99024963 C-7.57830383 101.97978073 -7.57268433 100.96931183 -7.56689453 99.92822266 C-7.56879288 98.86639771 -7.57069122 97.80457275 -7.57264709 96.71057129 C-7.57636334 93.1874258 -7.56563921 89.66448471 -7.55444336 86.14135742 C-7.55325201 83.70280481 -7.5527983 81.26425174 -7.55305481 78.82569885 C-7.55148852 73.71026749 -7.54318718 68.59490598 -7.52978516 63.47949219 C-7.51278615 56.9060678 -7.50897098 50.33272019 -7.50973034 43.75927639 C-7.50945908 38.72287761 -7.50398506 33.68649578 -7.4967289 28.65010262 C-7.49353573 26.22547598 -7.49157332 23.80084742 -7.49083519 21.3762188 C-7.48867897 17.99508226 -7.47995063 14.61402896 -7.46923828 11.23291016 C-7.46969147 10.22041702 -7.47014465 9.20792389 -7.47061157 8.16474915 C-7.46634659 7.24912201 -7.4620816 6.33349487 -7.45768738 5.39012146 C-7.45601153 4.58983741 -7.45433569 3.78955336 -7.45260906 2.96501827 C-7.15571811 -1.23501264 -3.40824057 0.01082844 0 0 Z " fill="#2C0056" transform="translate(606.323974609375,489.854736328125)"/>
<path d="M0 0 C7.88975508 7.38820585 12.64347712 17.23254027 13.46484375 27.921875 C13.80998129 41.6721546 10.41714957 52.78719291 1 63.0625 C-8.67232217 72.11425283 -19.5047739 74.79142467 -32.3515625 74.55859375 C-43.94690905 73.73409394 -54.03365898 68.02206318 -61.98828125 59.6640625 C-70.59242609 48.5726381 -71.9246616 36.8645073 -70.8125 23.3125 C-68.55216871 12.35958038 -61.96945226 2.67634377 -52.8125 -3.6875 C-35.39649195 -13.80434905 -15.97419151 -12.24688016 0 0 Z " fill="#A601D6" transform="translate(164.8125,464.6875)"/>
<path d="M0 0 C0 25.41 0 50.82 0 77 C-25.08 77 -50.16 77 -76 77 C-74.15172299 54.82067587 -68.1123123 37.47161652 -52 22 C-51.32066406 21.32453125 -50.64132812 20.6490625 -49.94140625 19.953125 C-37.07139127 7.85905687 -17.57638225 0 0 0 Z " fill="#A301D5" transform="translate(380,549)"/>
<path d="M0 0 C25.08 0 50.16 0 76 0 C76 25.41 76 50.82 76 77 C50.5624517 72.23045969 28.36981557 63.9410092 12.96484375 42.12890625 C4.64841547 28.88544889 1.290133 15.48159595 0 0 Z " fill="#A900D7" transform="translate(304,455)"/>
<path d="M0 0 C1.21880859 -0.01224609 2.43761719 -0.02449219 3.69335938 -0.03710938 C5.43649414 -0.04000977 5.43649414 -0.04000977 7.21484375 -0.04296875 C8.28726318 -0.04707764 9.35968262 -0.05118652 10.46459961 -0.05541992 C13.0625 0.1875 13.0625 0.1875 15.0625 2.1875 C15.25038205 4.77758309 15.31437766 7.25980933 15.28955078 9.85009766 C15.28984283 10.64042892 15.29013489 11.43076019 15.29043579 12.24504089 C15.28903962 14.86399214 15.27346505 17.4826608 15.2578125 20.1015625 C15.25408339 21.91474248 15.25123594 23.72792447 15.24923706 25.54110718 C15.24159257 30.31857851 15.22193712 35.09592867 15.1998291 39.87335205 C15.1793882 44.74628052 15.17023911 49.61922853 15.16015625 54.4921875 C15.13869197 64.05734497 15.10454623 73.62241242 15.0625 83.1875 C16.14257324 83.17702637 17.22264648 83.16655273 18.33544922 83.15576172 C22.33476459 83.11961806 26.33406546 83.09662016 30.33349609 83.07763672 C32.06594265 83.06756624 33.79837216 83.05390911 35.53076172 83.03662109 C38.01794639 83.01241838 40.50490675 83.00102761 42.9921875 82.9921875 C44.15788773 82.97670364 44.15788773 82.97670364 45.34713745 82.96090698 C47.25375493 82.96050729 49.15981036 83.0651786 51.0625 83.1875 C53.70949616 85.83449616 53.31999767 87.09144409 53.328125 90.78125 C53.33199219 92.44994141 53.33199219 92.44994141 53.3359375 94.15234375 C53.32820313 95.31894531 53.32046875 96.48554687 53.3125 97.6875 C53.32410156 99.43740234 53.32410156 99.43740234 53.3359375 101.22265625 C53.33335938 102.33511719 53.33078125 103.44757813 53.328125 104.59375 C53.32586914 105.61791016 53.32361328 106.64207031 53.32128906 107.69726562 C53.0625 110.1875 53.0625 110.1875 51.0625 112.1875 C48.44372559 112.44146729 48.44372559 112.44146729 45.08398438 112.44628906 C43.82928345 112.45259338 42.57458252 112.45889771 41.28186035 112.46539307 C39.90665548 112.46181339 38.53145188 112.45771145 37.15625 112.453125 C35.75142347 112.45447173 34.34659739 112.45641232 32.94177246 112.45892334 C29.99613004 112.46187426 27.05060882 112.45757809 24.10498047 112.44824219 C20.32511497 112.43684755 16.54553348 112.44340721 12.76567841 112.45538712 C9.86437837 112.46260665 6.96314591 112.46031738 4.06184387 112.45513153 C2.66795315 112.45379529 1.27405634 112.45544188 -0.11982727 112.46009064 C-2.06621181 112.46515711 -4.01261781 112.4560687 -5.95898438 112.44628906 C-7.06769897 112.44469788 -8.17641357 112.44310669 -9.31872559 112.44146729 C-11.9375 112.1875 -11.9375 112.1875 -13.9375 110.1875 C-14.18638897 108.24190426 -14.18638897 108.24190426 -14.18473816 105.81565857 C-14.18893265 104.89721161 -14.19312714 103.97876465 -14.19744873 103.03248596 C-14.19182922 102.02201706 -14.18620972 101.01154816 -14.18041992 99.97045898 C-14.18231827 98.90863403 -14.18421661 97.84680908 -14.18617249 96.75280762 C-14.18988873 93.22966213 -14.1791646 89.70672103 -14.16796875 86.18359375 C-14.16677741 83.74504114 -14.16632369 81.30648807 -14.1665802 78.86793518 C-14.16501391 73.75250382 -14.15671257 68.63714231 -14.14331055 63.52172852 C-14.12631154 56.94830412 -14.12249637 50.37495651 -14.12325573 43.80151272 C-14.12298447 38.76511393 -14.11751045 33.72873211 -14.11025429 28.69233894 C-14.10706112 26.26771231 -14.10509871 23.84308375 -14.10436058 21.41845512 C-14.10220436 18.03731859 -14.09347602 14.65626529 -14.08276367 11.27514648 C-14.08321686 10.26265335 -14.08367004 9.25016022 -14.08413696 8.20698547 C-14.07987198 7.29135834 -14.07560699 6.3757312 -14.07121277 5.43235779 C-14.06953692 4.63207374 -14.06786108 3.83178968 -14.06613445 3.0072546 C-13.69703605 -2.21427432 -3.860301 0.00203495 0 0 Z " fill="#2C0056" transform="translate(1716.9375,489.8125)"/>
</svg>
