<?xml version="1.0" encoding="UTF-8"?>
<svg version="1.1" xmlns="http://www.w3.org/2000/svg" width="1920" height="1080">
<path d="M0 0 C54.78 0 109.56 0 166 0 C166 45.54 166 91.08 166 138 C193.06 138 220.12 138 248 138 C248 181.89 248 225.78 248 271 C220.61 271 193.22 271 165 271 C165 316.87 165 362.74 165 410 C110.55 410 56.1 410 0 410 C0 274.7 0 139.4 0 0 Z " fill="#A600D6" transform="translate(954,203)"/>
<path d="M0 0 C53.79 0 107.58 0 163 0 C163 135.3 163 270.6 163 410 C109.21 410 55.42 410 0 410 C0 274.7 0 139.4 0 0 Z " fill="#A600D6" transform="translate(522,203)"/>
<path d="M0 0 C29.63571043 -0.75746225 55.98350085 10.08047015 77.48046875 30.40625 C93.77692336 47.47872626 105.19764429 71.3035834 105.79296875 95.15625 C105.84324219 96.08566406 105.89351562 97.01507813 105.9453125 97.97265625 C106.75572215 123.87334869 97.89918652 147.07426316 81.79296875 167.15625 C81.25285156 167.86265625 80.71273437 168.5690625 80.15625 169.296875 C66.08346561 186.73720226 42.35162039 199.20912994 20.20703125 201.94091797 C-9.84330304 204.62137861 -37.03498057 198.93872298 -60.63671875 179.40625 C-79.70288874 162.71610727 -92.49123333 141.40521229 -96.20703125 116.15625 C-97.10581389 100.54966429 -97.25897492 85.06105276 -92.20703125 70.15625 C-91.99272461 69.5159082 -91.77841797 68.87556641 -91.55761719 68.21582031 C-82.82639915 42.73388122 -64.38806098 22.10461377 -40.3125 10.171875 C-27.50217723 4.1422811 -14.14219706 0.689023 0 0 Z " fill="#A601D6" transform="translate(805.20703125,201.84375)"/>
<path d="M0 0 C0 60.72 0 121.44 0 184 C-60.06 184 -120.12 184 -182 184 C-176.9301888 130.76698242 -159.14846164 81.91923064 -117 47 C-107.56185707 39.41908989 -97.51237738 32.97319532 -87 27 C-86.42378906 26.66403809 -85.84757812 26.32807617 -85.25390625 25.98193359 C-60.59666233 11.64746441 -28.74190761 0 0 0 Z " fill="#A301D5" transform="translate(1397,429)"/>
<path d="M0 0 C60.06 0 120.12 0 182 0 C182 60.72 182 121.44 182 184 C157.4976847 180.49966924 157.4976847 180.49966924 149.5625 178.3125 C148.62204834 178.05903809 147.68159668 177.80557617 146.71264648 177.54443359 C131.19948038 173.23687169 116.16794245 167.7371569 101.99365234 160.07275391 C99.87873395 158.93474859 97.74689905 157.83297014 95.61328125 156.73046875 C79.6609201 148.34181601 65.94836697 137.47464622 53 125 C52.29875 124.3503125 51.5975 123.700625 50.875 123.03125 C26.14306339 99.49602 11.28973695 65.88122105 4.1875 33 C3.9925293 32.1128833 3.79755859 31.2257666 3.59667969 30.31176758 C1.56233134 20.21088717 0.99111177 10.40667357 0 0 Z " fill="#A900D7" transform="translate(1215,203)"/>
<path d="M0 0 C5.22843352 0.22038455 9.07567078 0.53349734 13.15478516 3.98828125 C17.81311521 9.92343958 20.93548045 16.6643371 24.03173828 23.50976562 C26.32460188 28.37500518 29.14148955 32.84871094 32.02734375 37.37841797 C32.92456452 38.83640171 33.81940398 40.29585588 34.7109375 41.75732422 C35.64099609 43.27132812 35.64099609 43.27132812 36.58984375 44.81591797 C39.57646232 41.23023204 42.07977541 37.5490624 44.48828125 33.55419922 C44.84572418 32.96350143 45.20316711 32.37280365 45.57144165 31.76420593 C46.70592361 29.88760727 47.83544878 28.00808153 48.96484375 26.12841797 C49.71451983 24.88668589 50.46451734 23.64514782 51.21484375 22.40380859 C51.58081665 21.79614655 51.94678955 21.1884845 52.32385254 20.56240845 C53.05600008 19.3526861 53.79385251 18.1463974 54.53747559 16.94369507 C56.19112652 14.25135689 57.68567392 11.60278656 58.98242188 8.71875 C60.29550341 5.91276051 61.3272766 3.9376215 63.58984375 1.81591797 C68.22729859 0.56037086 72.57489913 0.77592134 77.33984375 1.06591797 C78.58378906 1.09427734 79.82773437 1.12263672 81.109375 1.15185547 C90.22329777 1.44937199 90.22329777 1.44937199 92.58984375 3.81591797 C92.84152603 5.72748566 92.84152603 5.72748566 92.84381104 8.10510254 C92.84945068 9.00527603 92.85509033 9.90544952 92.86090088 10.832901 C92.85685242 11.82309738 92.85280396 12.81329376 92.84863281 13.83349609 C92.85213745 14.87420761 92.85564209 15.91491913 92.85925293 16.98716736 C92.86808333 20.44056798 92.86221642 23.89376513 92.85546875 27.34716797 C92.85681502 29.7384851 92.85875523 32.12980197 92.86126709 34.52111816 C92.86422013 39.53819377 92.8599149 44.55519827 92.85058594 49.57226562 C92.83919136 56.01559356 92.84574987 62.4587549 92.85773087 68.90207672 C92.86494459 73.84158594 92.86266378 78.78105541 92.85747528 83.7205658 C92.85613743 86.09691894 92.85779119 88.47327565 92.86243439 90.84962463 C92.86749157 94.16596083 92.85980064 97.48202407 92.84863281 100.79833984 C92.85268127 101.78853622 92.85672974 102.7787326 92.86090088 103.79893494 C92.85526123 104.69910843 92.84962158 105.59928192 92.84381104 106.5267334 C92.84305698 107.31134697 92.84230293 108.09596054 92.84152603 108.90435028 C92.58984375 110.81591797 92.58984375 110.81591797 90.58984375 112.81591797 C88.0078125 113.07470703 88.0078125 113.07470703 84.77734375 113.08154297 C83.61976563 113.08412109 82.4621875 113.08669922 81.26953125 113.08935547 C80.05523438 113.08162109 78.8409375 113.07388672 77.58984375 113.06591797 C76.37554688 113.07365234 75.16125 113.08138672 73.91015625 113.08935547 C72.17378906 113.08548828 72.17378906 113.08548828 70.40234375 113.08154297 C69.33628906 113.07928711 68.27023437 113.07703125 67.171875 113.07470703 C64.58984375 112.81591797 64.58984375 112.81591797 62.58984375 110.81591797 C62.31137085 108.71517944 62.31137085 108.71517944 62.27099609 106.09082031 C62.2511264 105.10995453 62.23125671 104.12908875 62.21078491 103.11849976 C62.1992337 102.05700714 62.1876825 100.99551453 62.17578125 99.90185547 C62.1564151 98.81707916 62.13704895 97.73230286 62.11709595 96.61465454 C62.05717949 93.14015638 62.01086636 89.6656253 61.96484375 86.19091797 C61.9266751 83.83934079 61.88762404 81.48777776 61.84765625 79.13623047 C61.75146816 73.36291827 61.66645622 67.58952131 61.58984375 61.81591797 C54.8293346 72.45024853 54.8293346 72.45024853 48.453125 83.31591797 C48.02064453 84.07646484 47.58816406 84.83701172 47.14257812 85.62060547 C46.28609403 87.13664976 45.4486504 88.66355332 44.62695312 90.19873047 C44.19833984 90.93865234 43.76972656 91.67857422 43.328125 92.44091797 C42.787323 93.41931641 42.787323 93.41931641 42.2355957 94.41748047 C40.58984375 95.81591797 40.58984375 95.81591797 37.18505859 96.39648438 C33.58984375 95.81591797 33.58984375 95.81591797 31.2980957 93.34082031 C30.64800537 92.20596191 29.99791504 91.07110352 29.328125 89.90185547 C28.97018356 89.29459625 28.61224213 88.68733704 28.24345398 88.06167603 C27.10484133 86.11801595 26.00341932 84.15604038 24.90234375 82.19091797 C24.15151405 80.89133653 23.39828144 79.59314022 22.64257812 78.29638672 C21.24390053 75.89471624 19.86341119 73.48583832 18.4934082 71.06738281 C16.63245789 67.88870687 14.66292959 64.85805559 12.58984375 61.81591797 C12.5817569 62.42535248 12.57367004 63.03478699 12.56533813 63.66268921 C12.4794753 69.98904781 12.37998048 76.31508643 12.27246094 82.64111328 C12.23410848 85.00401447 12.19926683 87.36697531 12.16796875 89.72998047 C12.12245409 93.12082277 12.06443756 96.5112522 12.00390625 99.90185547 C11.98657944 101.49409439 11.98657944 101.49409439 11.96890259 103.11849976 C11.9490329 104.09936554 11.92916321 105.08023132 11.90869141 106.09082031 C11.89536774 106.95685883 11.88204407 107.82289734 11.86831665 108.71517944 C11.58984375 110.81591797 11.58984375 110.81591797 9.58984375 112.81591797 C7.0078125 113.07470703 7.0078125 113.07470703 3.77734375 113.08154297 C2.61976563 113.08412109 1.4621875 113.08669922 0.26953125 113.08935547 C-0.94476562 113.08162109 -2.1590625 113.07388672 -3.41015625 113.06591797 C-4.62445312 113.07365234 -5.83875 113.08138672 -7.08984375 113.08935547 C-8.82621094 113.08548828 -8.82621094 113.08548828 -10.59765625 113.08154297 C-12.19673828 113.07815918 -12.19673828 113.07815918 -13.828125 113.07470703 C-16.41015625 112.81591797 -16.41015625 112.81591797 -18.41015625 110.81591797 C-18.66183853 108.90435028 -18.66183853 108.90435028 -18.66412354 106.5267334 C-18.66976318 105.62655991 -18.67540283 104.72638641 -18.68121338 103.79893494 C-18.67716492 102.80873856 -18.67311646 101.81854218 -18.66894531 100.79833984 C-18.67244995 99.75762833 -18.67595459 98.71691681 -18.67956543 97.64466858 C-18.68839583 94.19126796 -18.68252892 90.73807081 -18.67578125 87.28466797 C-18.67712752 84.89335083 -18.67906773 82.50203397 -18.68157959 80.11071777 C-18.68453263 75.09364217 -18.6802274 70.07663767 -18.67089844 65.05957031 C-18.65950386 58.61624237 -18.66606237 52.17308104 -18.67804337 45.72975922 C-18.68525709 40.79025 -18.68297628 35.85078053 -18.67778778 30.91127014 C-18.67644993 28.534917 -18.67810369 26.15856029 -18.68274689 23.7822113 C-18.68780407 20.46587511 -18.68011314 17.14981186 -18.66894531 13.83349609 C-18.67299377 12.84329971 -18.67704224 11.85310333 -18.68121338 10.832901 C-18.67557373 9.93272751 -18.66993408 9.03255402 -18.66412354 8.10510254 C-18.66336948 7.32048897 -18.66261543 6.5358754 -18.66183853 5.72748566 C-17.75217527 -1.18155416 -5.15031644 0.177667 0 0 Z " fill="#2C0056" transform="translate(517.41015625,767.18408203125)"/>
<path d="M0 0 C0.89260529 0.00404846 1.78521057 0.00809692 2.7048645 0.01226807 C3.62800446 0.01035461 4.55114441 0.00844116 5.5022583 0.00646973 C7.46432771 0.00510602 9.42640608 0.00881536 11.38845825 0.01715088 C14.35351647 0.02772664 17.31795177 0.01732551 20.2829895 0.00445557 C51.03012704 -0.02185805 51.03012704 -0.02185805 62.728302 10.20367432 C69.51912128 17.55088424 71.892089 25.62256736 71.81814575 35.51617432 C71.29856861 40.41405487 69.42272532 44.76948446 67.525177 49.27789307 C66.85692145 50.9439233 66.18977854 52.61040183 65.525177 54.27789307 C65.92349731 54.69039307 66.32181763 55.10289307 66.73220825 55.52789307 C73.15561573 62.5295635 75.525177 69.77555525 75.525177 79.27789307 C74.62531709 88.55769846 71.43793136 96.2905278 64.556427 102.67633057 C51.53705607 112.9416038 34.68722708 111.60230581 19.00100708 111.53863525 C15.80640242 111.52778686 12.61234411 111.53864685 9.41775513 111.55133057 C7.38715493 111.55001114 5.35655507 111.54745327 3.32595825 111.54351807 C2.37086868 111.54756653 1.41577911 111.55161499 0.43174744 111.55578613 C-0.4470961 111.54948181 -1.32593964 111.54317749 -2.23141479 111.53668213 C-3.39171455 111.53429535 -3.39171455 111.53429535 -4.57545471 111.53186035 C-6.474823 111.27789307 -6.474823 111.27789307 -8.474823 109.27789307 C-8.72650528 107.36632538 -8.72650528 107.36632538 -8.72879028 104.9887085 C-8.73442993 104.088535 -8.74006958 103.18836151 -8.74588013 102.26091003 C-8.74183167 101.27071365 -8.7377832 100.28051727 -8.73361206 99.26031494 C-8.7371167 98.21960342 -8.74062134 97.17889191 -8.74423218 96.10664368 C-8.75306258 92.65324306 -8.74719567 89.20004591 -8.740448 85.74664307 C-8.74179427 83.35532593 -8.74373448 80.96400906 -8.74624634 78.57269287 C-8.74919938 73.55561727 -8.74489414 68.53861277 -8.73556519 63.52154541 C-8.72417061 57.07821747 -8.73072911 50.63505613 -8.74271011 44.19173431 C-8.74992383 39.2522251 -8.74764302 34.31275563 -8.74245453 29.37324524 C-8.74111668 26.99689209 -8.74277044 24.62053539 -8.74741364 22.2441864 C-8.75247082 18.92785021 -8.74477989 15.61178696 -8.73361206 12.29547119 C-8.73766052 11.30527481 -8.74170898 10.31507843 -8.74588013 9.2948761 C-8.74024048 8.39470261 -8.73460083 7.49452911 -8.72879028 6.56707764 C-8.72803623 5.78246407 -8.72728218 4.99785049 -8.72650528 4.18946075 C-8.07222879 -0.77987511 -4.062935 0.0311603 0 0 Z M21.525177 28.27789307 C21.525177 32.89789307 21.525177 37.51789307 21.525177 42.27789307 C24.8354895 42.33976807 24.8354895 42.33976807 28.212677 42.40289307 C29.45404419 42.42609619 30.69541138 42.44929932 31.97439575 42.47320557 C35.36559758 42.28667081 37.53407365 41.8310715 40.525177 40.27789307 C42.32303331 37.90799157 42.54524354 36.68925701 42.400177 33.71539307 C41.277065 30.58672393 40.43716626 29.88642047 37.525177 28.27789307 C34.69117415 28.06448924 32.09501531 27.99324316 29.275177 28.09039307 C28.15755981 28.1106958 28.15755981 28.1106958 27.0173645 28.13140869 C25.18632284 28.16662103 23.35565531 28.22042456 21.525177 28.27789307 Z M21.525177 68.27789307 C21.525177 73.22789307 21.525177 78.17789307 21.525177 83.27789307 C24.60874506 83.3318855 27.69136588 83.37156262 30.775177 83.40289307 C31.64787231 83.41965088 32.52056763 83.43640869 33.41970825 83.45367432 C34.68621216 83.46334229 34.68621216 83.46334229 35.978302 83.47320557 C37.14087524 83.48891602 37.14087524 83.48891602 38.32693481 83.50494385 C40.82425549 83.24700202 42.40357368 82.60549713 44.525177 81.27789307 C46.07104576 78.18615555 45.81877222 75.68359754 45.525177 72.27789307 C44.22506749 69.86300248 44.22506749 69.86300248 41.525177 68.27789307 C38.09586901 67.78630953 34.73035472 67.90207427 31.275177 68.02789307 C29.87138794 68.05496338 29.87138794 68.05496338 28.4392395 68.08258057 C26.13411262 68.12962397 23.82951346 68.20136529 21.525177 68.27789307 Z " fill="#2C0056" transform="translate(1313.4748229980469,768.7221069335938)"/>
<path d="M0 0 C0.84202972 -0.00630432 1.68405945 -0.01260864 2.55160522 -0.019104 C3.46608429 -0.01505554 4.38056335 -0.01100708 5.32275391 -0.00683594 C6.2680899 -0.00874939 7.2134259 -0.01066284 8.18740845 -0.01263428 C10.19655624 -0.01399802 12.20571278 -0.01028844 14.21484375 -0.00195312 C17.25232509 0.00862541 20.28919877 -0.00177994 23.32666016 -0.01464844 C54.4396298 -0.03920206 54.4396298 -0.03920206 66.73681641 11.44628906 C74.58033764 19.87183838 77.42078715 28.80672624 77.92431641 40.25878906 C77.18702519 52.04040178 72.1797399 60.08398494 63.92431641 68.25878906 C62.60001969 69.27072581 61.26790747 70.27261421 59.92431641 71.25878906 C62.1315798 75.05107951 64.34032628 78.8425042 66.54931641 82.63378906 C67.47550781 84.22513672 67.47550781 84.22513672 68.42041016 85.84863281 C69.33886719 87.42451172 69.33886719 87.42451172 70.27587891 89.03222656 C70.88206055 90.07991211 71.48824219 91.12759766 72.11279297 92.20703125 C73.28733067 94.18569989 74.50104101 96.14183148 75.75927734 98.06835938 C76.31647461 98.9278418 76.87367188 99.78732422 77.44775391 100.67285156 C77.94968262 101.41744629 78.45161133 102.16204102 78.96875 102.92919922 C80.23458321 106.01519322 79.69353656 108.07120041 78.92431641 111.25878906 C74.38374838 111.52079659 69.84512238 111.68021233 65.29931641 111.82128906 C64.01412109 111.89669922 62.72892578 111.97210937 61.40478516 112.04980469 C52.18828079 112.26469728 52.18828079 112.26469728 48.9309082 109.67236328 C47.28685245 107.28552275 46.11645484 104.90079446 44.92431641 102.25878906 C43.79819597 100.15033323 42.66360215 98.04638795 41.52197266 95.94628906 C39.73211282 92.57316809 37.95539993 89.19706942 36.22314453 85.79394531 C35.64113281 84.70984375 35.05912109 83.62574219 34.45947266 82.50878906 C33.69195679 81.03152344 33.69195679 81.03152344 32.90893555 79.52441406 C30.99568651 76.88993691 30.99568651 76.88993691 27.20336914 76.43066406 C25.58023804 76.34558594 25.58023804 76.34558594 23.92431641 76.25878906 C23.93479004 77.2479834 23.94526367 78.23717773 23.95605469 79.25634766 C23.99220659 82.9202107 24.01519922 86.58405792 24.03417969 90.24804688 C24.04424829 91.83498789 24.05790408 93.42191031 24.07519531 95.00878906 C24.09940642 97.28748153 24.11079063 99.56592912 24.11962891 101.84472656 C24.12995148 102.55623871 24.14027405 103.26775085 24.15090942 104.00082397 C24.15131062 105.75510571 24.04633849 107.50875615 23.92431641 109.25878906 C21.23944476 111.94366071 19.8595466 111.51648356 16.11181641 111.52441406 C14.95423828 111.52699219 13.79666016 111.52957031 12.60400391 111.53222656 C11.38970703 111.52449219 10.17541016 111.51675781 8.92431641 111.50878906 C7.71001953 111.51652344 6.49572266 111.52425781 5.24462891 111.53222656 C3.50826172 111.52835938 3.50826172 111.52835938 1.73681641 111.52441406 C0.13773438 111.52103027 0.13773438 111.52103027 -1.49365234 111.51757812 C-4.07568359 111.25878906 -4.07568359 111.25878906 -6.07568359 109.25878906 C-6.32736588 107.34722137 -6.32736588 107.34722137 -6.32965088 104.96960449 C-6.33529053 104.069431 -6.34093018 103.16925751 -6.34674072 102.24180603 C-6.34269226 101.25160965 -6.3386438 100.26141327 -6.33447266 99.24121094 C-6.33797729 98.20049942 -6.34148193 97.1597879 -6.34509277 96.08753967 C-6.35392317 92.63413905 -6.34805626 89.18094191 -6.34130859 85.72753906 C-6.34265487 83.33622193 -6.34459508 80.94490506 -6.34710693 78.55358887 C-6.35005997 73.53651326 -6.34575474 68.51950876 -6.33642578 63.50244141 C-6.3250312 57.05911347 -6.33158971 50.61595213 -6.34357071 44.17263031 C-6.35078443 39.23312109 -6.34850362 34.29365162 -6.34331512 29.35414124 C-6.34197728 26.97778809 -6.34363104 24.60143138 -6.34827423 22.2250824 C-6.35333142 18.9087462 -6.34564049 15.59268296 -6.33447266 12.27636719 C-6.33852112 11.28617081 -6.34256958 10.29597443 -6.34674072 9.27577209 C-6.34110107 8.3755986 -6.33546143 7.47542511 -6.32965088 6.54797363 C-6.32889683 5.76336006 -6.32814278 4.97874649 -6.32736588 4.17035675 C-5.80447723 0.1989328 -3.44222125 0.00739146 0 0 Z M23.92431641 28.25878906 C23.92431641 35.51878906 23.92431641 42.77878906 23.92431641 50.25878906 C27.97712891 50.35160156 27.97712891 50.35160156 32.11181641 50.44628906 C32.95381592 50.47360107 33.79581543 50.50091309 34.66333008 50.52905273 C39.261964 50.57988751 42.16865228 50.20554092 45.92431641 47.25878906 C48.28289105 44.22633595 48.28365556 40.99813092 48.17822266 37.22363281 C47.80074172 34.30251114 46.78290268 32.51564383 44.92431641 30.25878906 C41.06020934 27.47663197 36.71937933 28.03655466 32.17431641 28.13378906 C29.45181641 28.17503906 26.72931641 28.21628906 23.92431641 28.25878906 Z " fill="#2C0056" transform="translate(846.07568359375,768.7412109375)"/>
<path d="M0 0 C0.84202972 -0.00630432 1.68405945 -0.01260864 2.55160522 -0.019104 C3.46608429 -0.01505554 4.38056335 -0.01100708 5.32275391 -0.00683594 C6.2680899 -0.00874939 7.2134259 -0.01066284 8.18740845 -0.01263428 C10.19655624 -0.01399802 12.20571278 -0.01028844 14.21484375 -0.00195312 C17.25232509 0.00862541 20.28919877 -0.00177994 23.32666016 -0.01464844 C54.4396298 -0.03920206 54.4396298 -0.03920206 66.73681641 11.44628906 C74.58033764 19.87183838 77.42078715 28.80672624 77.92431641 40.25878906 C77.18702519 52.04040178 72.1797399 60.08398494 63.92431641 68.25878906 C62.60001969 69.27072581 61.26790747 70.27261421 59.92431641 71.25878906 C62.1315798 75.05107951 64.34032628 78.8425042 66.54931641 82.63378906 C67.47550781 84.22513672 67.47550781 84.22513672 68.42041016 85.84863281 C69.33886719 87.42451172 69.33886719 87.42451172 70.27587891 89.03222656 C70.88206055 90.07991211 71.48824219 91.12759766 72.11279297 92.20703125 C73.28733067 94.18569989 74.50104101 96.14183148 75.75927734 98.06835938 C76.31647461 98.9278418 76.87367188 99.78732422 77.44775391 100.67285156 C77.94968262 101.41744629 78.45161133 102.16204102 78.96875 102.92919922 C80.23458321 106.01519322 79.69353656 108.07120041 78.92431641 111.25878906 C74.38374838 111.52079659 69.84512238 111.68021233 65.29931641 111.82128906 C64.01412109 111.89669922 62.72892578 111.97210937 61.40478516 112.04980469 C52.18828079 112.26469728 52.18828079 112.26469728 48.9309082 109.67236328 C47.28685245 107.28552275 46.11645484 104.90079446 44.92431641 102.25878906 C43.79819597 100.15033323 42.66360215 98.04638795 41.52197266 95.94628906 C39.73211282 92.57316809 37.95539993 89.19706942 36.22314453 85.79394531 C35.64113281 84.70984375 35.05912109 83.62574219 34.45947266 82.50878906 C33.69195679 81.03152344 33.69195679 81.03152344 32.90893555 79.52441406 C30.99568651 76.88993691 30.99568651 76.88993691 27.20336914 76.43066406 C25.58023804 76.34558594 25.58023804 76.34558594 23.92431641 76.25878906 C23.93479004 77.2479834 23.94526367 78.23717773 23.95605469 79.25634766 C23.99220659 82.9202107 24.01519922 86.58405792 24.03417969 90.24804688 C24.04424829 91.83498789 24.05790408 93.42191031 24.07519531 95.00878906 C24.09940642 97.28748153 24.11079063 99.56592912 24.11962891 101.84472656 C24.12995148 102.55623871 24.14027405 103.26775085 24.15090942 104.00082397 C24.15131062 105.75510571 24.04633849 107.50875615 23.92431641 109.25878906 C21.23944476 111.94366071 19.8595466 111.51648356 16.11181641 111.52441406 C14.95423828 111.52699219 13.79666016 111.52957031 12.60400391 111.53222656 C11.38970703 111.52449219 10.17541016 111.51675781 8.92431641 111.50878906 C7.71001953 111.51652344 6.49572266 111.52425781 5.24462891 111.53222656 C3.50826172 111.52835938 3.50826172 111.52835938 1.73681641 111.52441406 C0.13773438 111.52103027 0.13773438 111.52103027 -1.49365234 111.51757812 C-4.07568359 111.25878906 -4.07568359 111.25878906 -6.07568359 109.25878906 C-6.32736588 107.34722137 -6.32736588 107.34722137 -6.32965088 104.96960449 C-6.33529053 104.069431 -6.34093018 103.16925751 -6.34674072 102.24180603 C-6.34269226 101.25160965 -6.3386438 100.26141327 -6.33447266 99.24121094 C-6.33797729 98.20049942 -6.34148193 97.1597879 -6.34509277 96.08753967 C-6.35392317 92.63413905 -6.34805626 89.18094191 -6.34130859 85.72753906 C-6.34265487 83.33622193 -6.34459508 80.94490506 -6.34710693 78.55358887 C-6.35005997 73.53651326 -6.34575474 68.51950876 -6.33642578 63.50244141 C-6.3250312 57.05911347 -6.33158971 50.61595213 -6.34357071 44.17263031 C-6.35078443 39.23312109 -6.34850362 34.29365162 -6.34331512 29.35414124 C-6.34197728 26.97778809 -6.34363104 24.60143138 -6.34827423 22.2250824 C-6.35333142 18.9087462 -6.34564049 15.59268296 -6.33447266 12.27636719 C-6.33852112 11.28617081 -6.34256958 10.29597443 -6.34674072 9.27577209 C-6.34110107 8.3755986 -6.33546143 7.47542511 -6.32965088 6.54797363 C-6.32889683 5.76336006 -6.32814278 4.97874649 -6.32736588 4.17035675 C-5.80447723 0.1989328 -3.44222125 0.00739146 0 0 Z M23.92431641 28.25878906 C23.92431641 35.51878906 23.92431641 42.77878906 23.92431641 50.25878906 C27.97712891 50.35160156 27.97712891 50.35160156 32.11181641 50.44628906 C32.95381592 50.47360107 33.79581543 50.50091309 34.66333008 50.52905273 C39.261964 50.57988751 42.16865228 50.20554092 45.92431641 47.25878906 C48.28289105 44.22633595 48.28365556 40.99813092 48.17822266 37.22363281 C47.80074172 34.30251114 46.78290268 32.51564383 44.92431641 30.25878906 C41.06020934 27.47663197 36.71937933 28.03655466 32.17431641 28.13378906 C29.45181641 28.17503906 26.72931641 28.21628906 23.92431641 28.25878906 Z " fill="#2C0056" transform="translate(217.07568359375,768.7412109375)"/>
<path d="M0 0 C1.43352212 0.00015908 2.86704998 0.00585132 4.30053711 0.01586914 C5.43041298 0.01799156 5.43041298 0.01799156 6.58311462 0.02015686 C8.99807646 0.02577163 11.41294687 0.03832656 13.82788086 0.05102539 C15.46134307 0.05603849 17.09480672 0.06060173 18.72827148 0.06469727 C22.74067671 0.07574585 26.75301326 0.09302033 30.76538086 0.11352539 C34.41642029 8.78128094 37.3918844 17.66355642 40.37866211 26.57446289 C40.91640143 28.17145068 41.45442705 29.76834209 41.99272156 31.36514282 C43.40457932 35.55528391 44.81327587 39.74648018 46.22106934 43.93798828 C48.18492562 49.78395114 50.15195696 55.62884468 52.12057495 61.47320557 C53.20181722 64.68320626 54.2800609 67.89419178 55.35623169 71.105896 C57.55482178 77.65561461 59.76602955 84.19305681 62.15356445 90.67700195 C62.49324753 91.60549957 62.8329306 92.53399719 63.1829071 93.4906311 C63.77799679 95.10023597 64.38576416 96.70525556 65.01057434 98.30355835 C66.91707805 103.45740854 66.61242031 105.18424927 65.76538086 111.11352539 C56.19538086 111.11352539 46.62538086 111.11352539 36.76538086 111.11352539 C33.76538086 103.11352539 33.76538086 103.11352539 31.76538086 94.11352539 C19.88538086 94.11352539 8.00538086 94.11352539 -4.23461914 94.11352539 C-4.89461914 97.08352539 -5.55461914 100.05352539 -6.23461914 103.11352539 C-7.22461914 105.75352539 -8.21461914 108.39352539 -9.23461914 111.11352539 C-18.80461914 111.11352539 -28.37461914 111.11352539 -38.23461914 111.11352539 C-39.35960889 103.23859712 -39.35960889 103.23859712 -37.53491211 97.95507812 C-37.13592209 96.77570175 -36.73693207 95.59632538 -36.32585144 94.38121033 C-35.87645508 93.10307961 -35.42676495 91.82505214 -34.97680664 90.54711914 C-34.51574692 89.20228244 -34.05604367 87.85698003 -33.59761047 86.51124573 C-32.37163675 82.9243779 -31.1274339 79.34409141 -29.87945175 75.76483154 C-28.59696371 72.07678317 -27.33115247 68.38302451 -26.06396484 64.68969727 C-24.05796633 58.84877179 -22.04298171 53.01103082 -20.02124023 47.17553711 C-17.6255632 40.25847663 -15.25858903 33.33202334 -12.91040039 26.39868164 C-12.3018765 24.60447953 -11.69331717 22.81028945 -11.0847168 21.01611328 C-10.25986308 18.58401791 -9.43511257 16.15188901 -8.61126709 13.7194519 C-7.87803793 11.55810675 -7.14097423 9.3981131 -6.40258789 7.23852539 C-6.00322021 6.06547852 -5.60385254 4.89243164 -5.19238281 3.68383789 C-3.87030731 0.13583613 -3.87030731 0.13583613 0 0 Z M12.76538086 41.11352539 C11.59165113 44.71543081 10.42761829 48.3203969 9.26538086 51.92602539 C8.76458008 53.46226562 8.76458008 53.46226562 8.25366211 55.02954102 C7.9378418 56.01245117 7.62202148 56.99536133 7.29663086 58.00805664 C7.00336914 58.91402588 6.71010742 59.81999512 6.40795898 60.75341797 C5.63402909 63.18829369 5.63402909 63.18829369 5.76538086 66.11352539 C11.04538086 66.11352539 16.32538086 66.11352539 21.76538086 66.11352539 C20.29753012 57.43986196 17.65752174 49.39255463 14.76538086 41.11352539 C14.10538086 41.11352539 13.44538086 41.11352539 12.76538086 41.11352539 Z " fill="#2C0056" transform="translate(1176.234619140625,768.886474609375)"/>
<path d="M0 0 C1.43352212 0.00015908 2.86704998 0.00585132 4.30053711 0.01586914 C5.43041298 0.01799156 5.43041298 0.01799156 6.58311462 0.02015686 C8.99807646 0.02577163 11.41294687 0.03832656 13.82788086 0.05102539 C15.46134307 0.05603849 17.09480672 0.06060173 18.72827148 0.06469727 C22.74067671 0.07574585 26.75301326 0.09302033 30.76538086 0.11352539 C34.41642029 8.78128094 37.3918844 17.66355642 40.37866211 26.57446289 C40.91640143 28.17145068 41.45442705 29.76834209 41.99272156 31.36514282 C43.40457932 35.55528391 44.81327587 39.74648018 46.22106934 43.93798828 C48.18492562 49.78395114 50.15195696 55.62884468 52.12057495 61.47320557 C53.20181722 64.68320626 54.2800609 67.89419178 55.35623169 71.105896 C57.55482178 77.65561461 59.76602955 84.19305681 62.15356445 90.67700195 C62.49324753 91.60549957 62.8329306 92.53399719 63.1829071 93.4906311 C63.77799679 95.10023597 64.38576416 96.70525556 65.01057434 98.30355835 C66.91707805 103.45740854 66.61242031 105.18424927 65.76538086 111.11352539 C56.19538086 111.11352539 46.62538086 111.11352539 36.76538086 111.11352539 C33.76538086 103.11352539 33.76538086 103.11352539 31.76538086 94.11352539 C19.88538086 94.11352539 8.00538086 94.11352539 -4.23461914 94.11352539 C-4.89461914 97.08352539 -5.55461914 100.05352539 -6.23461914 103.11352539 C-7.22461914 105.75352539 -8.21461914 108.39352539 -9.23461914 111.11352539 C-18.80461914 111.11352539 -28.37461914 111.11352539 -38.23461914 111.11352539 C-39.35960889 103.23859712 -39.35960889 103.23859712 -37.53491211 97.95507812 C-37.13592209 96.77570175 -36.73693207 95.59632538 -36.32585144 94.38121033 C-35.87645508 93.10307961 -35.42676495 91.82505214 -34.97680664 90.54711914 C-34.51574692 89.20228244 -34.05604367 87.85698003 -33.59761047 86.51124573 C-32.37163675 82.9243779 -31.1274339 79.34409141 -29.87945175 75.76483154 C-28.59696371 72.07678317 -27.33115247 68.38302451 -26.06396484 64.68969727 C-24.05796633 58.84877179 -22.04298171 53.01103082 -20.02124023 47.17553711 C-17.6255632 40.25847663 -15.25858903 33.33202334 -12.91040039 26.39868164 C-12.3018765 24.60447953 -11.69331717 22.81028945 -11.0847168 21.01611328 C-10.25986308 18.58401791 -9.43511257 16.15188901 -8.61126709 13.7194519 C-7.87803793 11.55810675 -7.14097423 9.3981131 -6.40258789 7.23852539 C-6.00322021 6.06547852 -5.60385254 4.89243164 -5.19238281 3.68383789 C-3.87030731 0.13583613 -3.87030731 0.13583613 0 0 Z M12.76538086 41.11352539 C11.59165113 44.71543081 10.42761829 48.3203969 9.26538086 51.92602539 C8.76458008 53.46226562 8.76458008 53.46226562 8.25366211 55.02954102 C7.9378418 56.01245117 7.62202148 56.99536133 7.29663086 58.00805664 C7.00336914 58.91402588 6.71010742 59.81999512 6.40795898 60.75341797 C5.63402909 63.18829369 5.63402909 63.18829369 5.76538086 66.11352539 C11.04538086 66.11352539 16.32538086 66.11352539 21.76538086 66.11352539 C20.29753012 57.43986196 17.65752174 49.39255463 14.76538086 41.11352539 C14.10538086 41.11352539 13.44538086 41.11352539 12.76538086 41.11352539 Z " fill="#2C0056" transform="translate(711.234619140625,768.886474609375)"/>
<path d="M0 0 C1.15757812 -0.00257813 2.31515625 -0.00515625 3.5078125 -0.0078125 C4.72210937 -0.00007812 5.93640625 0.00765625 7.1875 0.015625 C8.40179687 0.00789062 9.61609375 0.00015625 10.8671875 -0.0078125 C12.60355469 -0.00394531 12.60355469 -0.00394531 14.375 0 C15.44105469 0.00225586 16.50710938 0.00451172 17.60546875 0.00683594 C20.1875 0.265625 20.1875 0.265625 22.1875 2.265625 C22.43293141 4.91350289 22.56099386 7.46466323 22.6015625 10.1171875 C22.62092865 10.89121918 22.6402948 11.66525085 22.6602478 12.46273804 C22.7200983 14.93858775 22.76645011 17.41448383 22.8125 19.890625 C22.85067482 21.56772877 22.88972625 23.24481284 22.9296875 24.921875 C23.02580409 29.03629853 23.10981439 33.15081386 23.1875 37.265625 C30.13981598 27.876843 36.9415744 18.40103845 43.59033203 8.79394531 C44.44473877 7.56369629 44.44473877 7.56369629 45.31640625 6.30859375 C45.82244385 5.57664795 46.32848145 4.84470215 46.84985352 4.09057617 C48.1875 2.265625 48.1875 2.265625 50.1875 0.265625 C53.07666016 0.03857422 53.07666016 0.03857422 56.7265625 0.0703125 C58.67949219 0.07998047 58.67949219 0.07998047 60.671875 0.08984375 C62.05208595 0.10655571 63.43229429 0.12348561 64.8125 0.140625 C66.20051452 0.15065494 67.58853589 0.15978077 68.9765625 0.16796875 C72.38038026 0.19160637 75.78385506 0.22455633 79.1875 0.265625 C80.31518555 2.5378418 80.31518555 2.5378418 81.1875 5.265625 C80.48754883 7.13989258 80.48754883 7.13989258 79.14453125 8.91015625 C78.6532373 9.57877686 78.16194336 10.24739746 77.65576172 10.9362793 C76.83615967 11.99649292 76.83615967 11.99649292 76 13.078125 C74.87252462 14.60069436 73.74624908 16.12415286 72.62109375 17.6484375 C72.04472168 18.41833008 71.46834961 19.18822266 70.87451172 19.98144531 C68.34325586 23.40871446 65.95199774 26.92624538 63.5625 30.453125 C60.86380377 34.43020273 58.13737931 38.36580146 55.2421875 42.203125 C54.53570068 43.15022339 54.53570068 43.15022339 53.81494141 44.11645508 C52.92112625 45.30826143 52.01515389 46.4910824 51.09521484 47.6628418 C49.24859135 50.13785622 48.18066178 51.70232686 48.21875 54.83984375 C49.3423497 57.65337363 50.70805393 59.89818801 52.4375 62.390625 C53.159375 63.4425 53.88125 64.494375 54.625 65.578125 C55.03105469 66.16207031 55.43710938 66.74601563 55.85546875 67.34765625 C57.30820144 69.43942091 58.74887213 71.53913569 60.1875 73.640625 C60.98160278 74.80029785 60.98160278 74.80029785 61.79174805 75.98339844 C62.89359319 77.59505741 63.99400519 79.20769707 65.09301758 80.82128906 C67.94813976 85.010631 70.82780529 89.17787463 73.76171875 93.3125 C74.88311303 94.92166561 76.00421767 96.53103311 77.125 98.140625 C77.66350586 98.88328613 78.20201172 99.62594727 78.75683594 100.39111328 C79.23797852 101.08962402 79.71912109 101.78813477 80.21484375 102.5078125 C80.64531006 103.1147998 81.07577637 103.72178711 81.51928711 104.34716797 C82.1875 106.265625 82.1875 106.265625 81.31079102 109.00048828 C80.94010498 109.7479834 80.56941895 110.49547852 80.1875 111.265625 C55.76896806 113.93082431 55.76896806 113.93082431 48.84570312 109.90332031 C45.03254334 106.18331589 42.78520295 101.57505754 40.50048828 96.81640625 C38.14669739 92.24362692 35.08858478 88.14516609 32.125 83.953125 C31.04811541 82.37551433 29.97372058 80.79619998 28.90234375 79.21484375 C27.06584254 76.50864463 25.16456052 73.87110703 23.1875 71.265625 C23.16768066 72.40628418 23.14786133 73.54694336 23.12744141 74.72216797 C23.05149433 78.94537823 22.96276072 83.16823899 22.87011719 87.39111328 C22.83178223 89.22047029 22.79693737 91.04990385 22.765625 92.87939453 C22.72007195 95.50581259 22.66206269 98.13170159 22.6015625 100.7578125 C22.58423569 101.98913406 22.58423569 101.98913406 22.56655884 103.24533081 C22.41524341 109.03788159 22.41524341 109.03788159 20.1875 111.265625 C17.60546875 111.52441406 17.60546875 111.52441406 14.375 111.53125 C13.21742188 111.53382813 12.05984375 111.53640625 10.8671875 111.5390625 C9.65289063 111.53132812 8.43859375 111.52359375 7.1875 111.515625 C5.97320313 111.52335938 4.75890625 111.53109375 3.5078125 111.5390625 C1.77144531 111.53519531 1.77144531 111.53519531 0 111.53125 C-1.59908203 111.52786621 -1.59908203 111.52786621 -3.23046875 111.52441406 C-5.8125 111.265625 -5.8125 111.265625 -7.8125 109.265625 C-8.06418228 107.35405731 -8.06418228 107.35405731 -8.06646729 104.97644043 C-8.07210693 104.07626694 -8.07774658 103.17609344 -8.08355713 102.24864197 C-8.07950867 101.25844559 -8.07546021 100.26824921 -8.07128906 99.24804688 C-8.0747937 98.20733536 -8.07829834 97.16662384 -8.08190918 96.09437561 C-8.09073958 92.64097499 -8.08487267 89.18777784 -8.078125 85.734375 C-8.07947127 83.34305787 -8.08141148 80.951741 -8.08392334 78.5604248 C-8.08687638 73.5433492 -8.08257115 68.5263447 -8.07324219 63.50927734 C-8.06184761 57.06594941 -8.06840612 50.62278807 -8.08038712 44.17946625 C-8.08760084 39.23995703 -8.08532003 34.30048756 -8.08013153 29.36097717 C-8.07879368 26.98462403 -8.08044744 24.60826732 -8.08509064 22.23191833 C-8.09014782 18.91558214 -8.08245689 15.5995189 -8.07128906 12.28320312 C-8.07533752 11.29300674 -8.07938599 10.30281036 -8.08355713 9.28260803 C-8.07791748 8.38243454 -8.07227783 7.48226105 -8.06646729 6.55480957 C-8.06571323 5.770196 -8.06495918 4.98558243 -8.06418228 4.17719269 C-7.44152734 -0.55197244 -3.88956113 0.00823063 0 0 Z " fill="#2C0056" transform="translate(997.8125,768.734375)"/>
<path d="M0 0 C0.97585304 -0.00525696 0.97585304 -0.00525696 1.97142029 -0.01062012 C4.12623705 -0.01943723 6.28072666 -0.01358856 8.43554688 -0.00683594 C9.93005435 -0.0081826 11.42456141 -0.01012314 12.91906738 -0.01263428 C16.0530209 -0.0155855 19.18686049 -0.01128801 22.32080078 -0.00195312 C26.34279701 0.0094415 30.36452633 0.00288201 34.38651276 -0.00909805 C37.47310404 -0.01631674 40.5596318 -0.0140287 43.64622498 -0.00884247 C45.12943045 -0.00750599 46.61264166 -0.00915363 48.09584045 -0.01380157 C50.16691419 -0.01886705 52.23755254 -0.01115678 54.30859375 0 C55.48836792 0.00159119 56.66814209 0.00318237 57.88366699 0.00482178 C60.65429688 0.25878906 60.65429688 0.25878906 62.65429688 2.25878906 C62.91308594 4.74902344 62.91308594 4.74902344 62.91992188 7.85253906 C62.92378906 9.52123047 62.92378906 9.52123047 62.92773438 11.22363281 C62.92 12.39023437 62.91226562 13.55683594 62.90429688 14.75878906 C62.91589844 16.50869141 62.91589844 16.50869141 62.92773438 18.29394531 C62.92515625 19.40640625 62.92257812 20.51886719 62.91992188 21.66503906 C62.91766602 22.68919922 62.91541016 23.71335937 62.91308594 24.76855469 C62.65429688 27.25878906 62.65429688 27.25878906 60.65429688 29.25878906 C57.7133295 29.43418342 54.86776339 29.49011282 51.92773438 29.45410156 C51.06491852 29.45127167 50.20210266 29.44844177 49.31314087 29.44552612 C46.55171968 29.43431239 43.79062038 29.4092059 41.02929688 29.38378906 C39.15950989 29.37376079 37.28971782 29.36463468 35.41992188 29.35644531 C30.83125579 29.33436918 26.24283094 29.29983141 21.65429688 29.25878906 C21.65429688 33.21878906 21.65429688 37.17878906 21.65429688 41.25878906 C23.28226196 41.25093384 23.28226196 41.25093384 24.94311523 41.24291992 C28.95547669 41.2248707 32.96783454 41.21335735 36.98022461 41.20385742 C38.71948855 41.19881702 40.45874824 41.19198476 42.19799805 41.18334961 C44.69255624 41.17127114 47.18705861 41.16555798 49.68164062 41.16113281 C50.46393539 41.15597153 51.24623016 41.15081024 52.05223083 41.14549255 C53.91996802 41.1452968 55.78758892 41.19679212 57.65429688 41.25878906 C60.24384845 43.84834063 58.83988479 51.21056509 58.84179688 54.69628906 C58.85404297 55.86740234 58.86628906 57.03851562 58.87890625 58.24511719 C58.88083984 59.36208984 58.88277344 60.4790625 58.88476562 61.62988281 C58.88887451 62.66040771 58.8929834 63.69093262 58.8972168 64.75268555 C58.65429688 67.25878906 58.65429688 67.25878906 56.65429688 69.25878906 C54.0013793 69.43389292 51.45443514 69.49034389 48.80273438 69.45410156 C48.0287027 69.45127167 47.25467102 69.44844177 46.45718384 69.44552612 C43.98106531 69.4343166 41.50530637 69.40921109 39.02929688 69.38378906 C37.35221876 69.37376024 35.67513498 69.36463422 33.99804688 69.35644531 C29.88332465 69.3343748 25.76887176 69.29984008 21.65429688 69.25878906 C21.65429688 73.54878906 21.65429688 77.83878906 21.65429688 82.25878906 C22.85554199 82.24831543 24.05678711 82.2378418 25.29443359 82.22705078 C29.74101799 82.19091619 34.18758936 82.16791249 38.63427734 82.14892578 C40.56073182 82.13885324 42.48717095 82.12519463 44.41357422 82.10791016 C47.17874939 82.08371665 49.94372287 82.0723187 52.70898438 82.06347656 C53.57361298 82.05315399 54.43824158 82.04283142 55.32907104 82.03219604 C57.43883208 82.031798 59.54810406 82.13613663 61.65429688 82.25878906 C64.30129304 84.90578523 63.91179455 86.16273315 63.91992188 89.85253906 C63.92378906 91.52123047 63.92378906 91.52123047 63.92773438 93.22363281 C63.92 94.39023437 63.91226562 95.55683594 63.90429688 96.75878906 C63.91589844 98.50869141 63.91589844 98.50869141 63.92773438 100.29394531 C63.92515625 101.40640625 63.92257812 102.51886719 63.91992188 103.66503906 C63.91766602 104.68919922 63.91541016 105.71335937 63.91308594 106.76855469 C63.65429688 109.25878906 63.65429688 109.25878906 61.65429688 111.25878906 C58.84570312 111.51275635 58.84570312 111.51275635 55.21679688 111.51757812 C54.55647461 111.52108276 53.89615234 111.5245874 53.21582031 111.52819824 C51.02853955 111.53701588 48.84158105 111.53116649 46.65429688 111.52441406 C45.13736916 111.52576071 43.62044186 111.52770124 42.10351562 111.5302124 C38.92248429 111.5331637 35.74156518 111.5288659 32.56054688 111.51953125 C28.47801786 111.50813663 24.39575179 111.51469608 20.31323242 111.52667618 C17.1803183 111.53389467 14.04746677 111.53160692 10.91455078 111.52642059 C9.40901661 111.52508406 7.90347681 111.52673194 6.39794922 111.5313797 C4.29574475 111.53644485 2.19396929 111.52873534 0.09179688 111.51757812 C-1.10574219 111.51598694 -2.30328125 111.51439575 -3.53710938 111.51275635 C-6.34570312 111.25878906 -6.34570312 111.25878906 -8.34570312 109.25878906 C-8.59738541 107.34722137 -8.59738541 107.34722137 -8.59967041 104.96960449 C-8.60531006 104.069431 -8.61094971 103.16925751 -8.61676025 102.24180603 C-8.61271179 101.25160965 -8.60866333 100.26141327 -8.60449219 99.24121094 C-8.60799683 98.20049942 -8.61150146 97.1597879 -8.6151123 96.08753967 C-8.6239427 92.63413905 -8.6180758 89.18094191 -8.61132812 85.72753906 C-8.6126744 83.33622193 -8.61461461 80.94490506 -8.61712646 78.55358887 C-8.62007951 73.53651326 -8.61577427 68.51950876 -8.60644531 63.50244141 C-8.59505074 57.05911347 -8.60160924 50.61595213 -8.61359024 44.17263031 C-8.62080396 39.23312109 -8.61852315 34.29365162 -8.61333466 29.35414124 C-8.61199681 26.97778809 -8.61365057 24.60143138 -8.61829376 22.2250824 C-8.62335095 18.9087462 -8.61566002 15.59268296 -8.60449219 12.27636719 C-8.60854065 11.28617081 -8.61258911 10.29597443 -8.61676025 9.27577209 C-8.61112061 8.3755986 -8.60548096 7.47542511 -8.59967041 6.54797363 C-8.59891636 5.76336006 -8.59816231 4.97874649 -8.59738541 4.17035675 C-7.94881359 -0.75565122 -3.99924512 0.00539387 0 0 Z " fill="#2C0056" transform="translate(1591.345703125,768.7412109375)"/>
<path d="M0 0 C0.97585304 -0.00525696 0.97585304 -0.00525696 1.97142029 -0.01062012 C4.12623705 -0.01943723 6.28072666 -0.01358856 8.43554688 -0.00683594 C9.93005435 -0.0081826 11.42456141 -0.01012314 12.91906738 -0.01263428 C16.0530209 -0.0155855 19.18686049 -0.01128801 22.32080078 -0.00195312 C26.34279701 0.0094415 30.36452633 0.00288201 34.38651276 -0.00909805 C37.47310404 -0.01631674 40.5596318 -0.0140287 43.64622498 -0.00884247 C45.12943045 -0.00750599 46.61264166 -0.00915363 48.09584045 -0.01380157 C50.16691419 -0.01886705 52.23755254 -0.01115678 54.30859375 0 C55.48836792 0.00159119 56.66814209 0.00318237 57.88366699 0.00482178 C60.65429688 0.25878906 60.65429688 0.25878906 62.65429688 2.25878906 C62.91308594 4.74902344 62.91308594 4.74902344 62.91992188 7.85253906 C62.92378906 9.52123047 62.92378906 9.52123047 62.92773438 11.22363281 C62.92 12.39023437 62.91226563 13.55683594 62.90429688 14.75878906 C62.91589844 16.50869141 62.91589844 16.50869141 62.92773438 18.29394531 C62.92515625 19.40640625 62.92257812 20.51886719 62.91992188 21.66503906 C62.91766602 22.68919922 62.91541016 23.71335937 62.91308594 24.76855469 C62.65429688 27.25878906 62.65429688 27.25878906 60.65429688 29.25878906 C57.7133295 29.43418342 54.86776339 29.49011282 51.92773438 29.45410156 C51.06491852 29.45127167 50.20210266 29.44844177 49.31314087 29.44552612 C46.55171968 29.43431239 43.79062038 29.4092059 41.02929688 29.38378906 C39.15950989 29.37376079 37.28971782 29.36463468 35.41992188 29.35644531 C30.83125579 29.33436918 26.24283094 29.29983141 21.65429688 29.25878906 C21.65429688 33.21878906 21.65429688 37.17878906 21.65429688 41.25878906 C23.28226196 41.25093384 23.28226196 41.25093384 24.94311523 41.24291992 C28.95547669 41.2248707 32.96783454 41.21335735 36.98022461 41.20385742 C38.71948855 41.19881702 40.45874824 41.19198476 42.19799805 41.18334961 C44.69255624 41.17127114 47.18705861 41.16555798 49.68164062 41.16113281 C50.46393539 41.15597153 51.24623016 41.15081024 52.05223083 41.14549255 C53.91996802 41.1452968 55.78758892 41.19679212 57.65429688 41.25878906 C60.24384845 43.84834063 58.83988479 51.21056509 58.84179688 54.69628906 C58.85404297 55.86740234 58.86628906 57.03851562 58.87890625 58.24511719 C58.88083984 59.36208984 58.88277344 60.4790625 58.88476562 61.62988281 C58.88887451 62.66040771 58.8929834 63.69093262 58.8972168 64.75268555 C58.65429688 67.25878906 58.65429688 67.25878906 56.65429688 69.25878906 C54.0013793 69.43389292 51.45443514 69.49034389 48.80273438 69.45410156 C48.0287027 69.45127167 47.25467102 69.44844177 46.45718384 69.44552612 C43.98106531 69.4343166 41.50530637 69.40921109 39.02929688 69.38378906 C37.35221876 69.37376024 35.67513498 69.36463422 33.99804688 69.35644531 C29.88332465 69.3343748 25.76887176 69.29984008 21.65429688 69.25878906 C21.65429688 73.54878906 21.65429688 77.83878906 21.65429688 82.25878906 C22.85554199 82.24831543 24.05678711 82.2378418 25.29443359 82.22705078 C29.74101799 82.19091619 34.18758936 82.16791249 38.63427734 82.14892578 C40.56073182 82.13885324 42.48717095 82.12519463 44.41357422 82.10791016 C47.17874939 82.08371665 49.94372287 82.0723187 52.70898438 82.06347656 C53.57361298 82.05315399 54.43824158 82.04283142 55.32907104 82.03219604 C57.43883208 82.031798 59.54810406 82.13613663 61.65429688 82.25878906 C64.30129304 84.90578523 63.91179455 86.16273315 63.91992188 89.85253906 C63.92378906 91.52123047 63.92378906 91.52123047 63.92773438 93.22363281 C63.92 94.39023437 63.91226563 95.55683594 63.90429688 96.75878906 C63.91589844 98.50869141 63.91589844 98.50869141 63.92773438 100.29394531 C63.92515625 101.40640625 63.92257812 102.51886719 63.91992188 103.66503906 C63.91766602 104.68919922 63.91541016 105.71335937 63.91308594 106.76855469 C63.65429688 109.25878906 63.65429688 109.25878906 61.65429688 111.25878906 C58.84570312 111.51275635 58.84570312 111.51275635 55.21679688 111.51757812 C54.55647461 111.52108276 53.89615234 111.5245874 53.21582031 111.52819824 C51.02853955 111.53701588 48.84158105 111.53116649 46.65429688 111.52441406 C45.13736916 111.52576071 43.62044186 111.52770124 42.10351562 111.5302124 C38.92248429 111.5331637 35.74156518 111.5288659 32.56054688 111.51953125 C28.47801786 111.50813663 24.39575179 111.51469608 20.31323242 111.52667618 C17.1803183 111.53389467 14.04746677 111.53160692 10.91455078 111.52642059 C9.40901661 111.52508406 7.90347681 111.52673194 6.39794922 111.5313797 C4.29574475 111.53644485 2.19396929 111.52873534 0.09179688 111.51757812 C-1.10574219 111.51598694 -2.30328125 111.51439575 -3.53710938 111.51275635 C-6.34570312 111.25878906 -6.34570312 111.25878906 -8.34570312 109.25878906 C-8.59738541 107.34722137 -8.59738541 107.34722137 -8.59967041 104.96960449 C-8.60531006 104.069431 -8.61094971 103.16925751 -8.61676025 102.24180603 C-8.61271179 101.25160965 -8.60866333 100.26141327 -8.60449219 99.24121094 C-8.60799683 98.20049942 -8.61150146 97.1597879 -8.6151123 96.08753967 C-8.6239427 92.63413905 -8.6180758 89.18094191 -8.61132812 85.72753906 C-8.6126744 83.33622193 -8.61461461 80.94490506 -8.61712646 78.55358887 C-8.62007951 73.53651326 -8.61577427 68.51950876 -8.60644531 63.50244141 C-8.59505074 57.05911347 -8.60160924 50.61595213 -8.61359024 44.17263031 C-8.62080396 39.23312109 -8.61852315 34.29365162 -8.61333466 29.35414124 C-8.61199681 26.97778809 -8.61365057 24.60143138 -8.61829376 22.2250824 C-8.62335095 18.9087462 -8.61566002 15.59268296 -8.60449219 12.27636719 C-8.60854065 11.28617081 -8.61258911 10.29597443 -8.61676025 9.27577209 C-8.61112061 8.3755986 -8.60548096 7.47542511 -8.59967041 6.54797363 C-8.59891636 5.76336006 -8.59816231 4.97874649 -8.59738541 4.17035675 C-7.94881359 -0.75565122 -3.99924512 0.00539387 0 0 Z " fill="#2C0056" transform="translate(369.345703125,768.7412109375)"/>
<path d="M0 0 C1.15757813 -0.00257813 2.31515625 -0.00515625 3.5078125 -0.0078125 C4.72210937 -0.00007812 5.93640625 0.00765625 7.1875 0.015625 C8.40179687 0.00789062 9.61609375 0.00015625 10.8671875 -0.0078125 C12.60355469 -0.00394531 12.60355469 -0.00394531 14.375 0 C15.44105469 0.00225586 16.50710938 0.00451172 17.60546875 0.00683594 C20.1875 0.265625 20.1875 0.265625 22.1875 2.265625 C22.37534482 4.82554402 22.43939805 7.2763214 22.41455078 9.83642578 C22.41484283 10.61700348 22.41513489 11.39758118 22.41543579 12.20181274 C22.41403968 14.78829978 22.39846542 17.37450064 22.3828125 19.9609375 C22.37908337 21.75169721 22.37623592 23.54245896 22.37423706 25.33322144 C22.36659275 30.05150972 22.34693745 34.76967531 22.3248291 39.48791504 C22.30438782 44.30052022 22.29523903 49.11314519 22.28515625 53.92578125 C22.26369228 63.37244981 22.22954675 72.81902721 22.1875 82.265625 C23.76217041 82.24991455 23.76217041 82.24991455 25.36865234 82.23388672 C29.25615033 82.19774047 33.14363341 82.17474422 37.03125 82.15576172 C38.71519466 82.14569183 40.39912179 82.13203512 42.08300781 82.11474609 C44.50069501 82.09054074 46.91815143 82.07915204 49.3359375 82.0703125 C50.0911972 82.05998993 50.84645691 82.04966736 51.62460327 82.03903198 C53.4804398 82.03863182 55.3356928 82.14339784 57.1875 82.265625 C59.83449616 84.91262116 59.44499767 86.16956909 59.453125 89.859375 C59.45699219 91.52806641 59.45699219 91.52806641 59.4609375 93.23046875 C59.45320313 94.39707031 59.44546875 95.56367187 59.4375 96.765625 C59.44910156 98.51552734 59.44910156 98.51552734 59.4609375 100.30078125 C59.45835938 101.41324219 59.45578125 102.52570313 59.453125 103.671875 C59.45086914 104.69603516 59.44861328 105.72019531 59.44628906 106.77539062 C59.1875 109.265625 59.1875 109.265625 57.1875 111.265625 C54.56872559 111.51959229 54.56872559 111.51959229 51.20898438 111.52441406 C49.95428345 111.53071838 48.69958252 111.53702271 47.40686035 111.54351807 C46.03165548 111.53993839 44.65645188 111.53583645 43.28125 111.53125 C41.87642347 111.53259673 40.47159739 111.53453732 39.06677246 111.53704834 C36.12113004 111.53999926 33.17560882 111.53570309 30.22998047 111.52636719 C26.45011497 111.51497255 22.67053348 111.52153221 18.89067841 111.53351212 C15.98937837 111.54073165 13.08814591 111.53844238 10.18684387 111.53325653 C8.79295315 111.53192029 7.39905634 111.53356688 6.00517273 111.53821564 C4.05878819 111.54328211 2.11238219 111.5341937 0.16601562 111.52441406 C-0.94269897 111.52282288 -2.05141357 111.52123169 -3.19372559 111.51959229 C-5.8125 111.265625 -5.8125 111.265625 -7.8125 109.265625 C-8.06418228 107.35405731 -8.06418228 107.35405731 -8.06646729 104.97644043 C-8.07210693 104.07626694 -8.07774658 103.17609344 -8.08355713 102.24864197 C-8.07950867 101.25844559 -8.07546021 100.26824921 -8.07128906 99.24804688 C-8.0747937 98.20733536 -8.07829834 97.16662384 -8.08190918 96.09437561 C-8.09073958 92.64097499 -8.08487267 89.18777784 -8.078125 85.734375 C-8.07947127 83.34305787 -8.08141148 80.951741 -8.08392334 78.5604248 C-8.08687638 73.5433492 -8.08257115 68.5263447 -8.07324219 63.50927734 C-8.06184761 57.06594941 -8.06840612 50.62278807 -8.08038712 44.17946625 C-8.08760084 39.23995703 -8.08532003 34.30048756 -8.08013153 29.36097717 C-8.07879368 26.98462403 -8.08044744 24.60826732 -8.08509064 22.23191833 C-8.09014782 18.91558214 -8.08245689 15.5995189 -8.07128906 12.28320312 C-8.07533752 11.29300674 -8.07938599 10.30281036 -8.08355713 9.28260803 C-8.07791748 8.38243454 -8.07227783 7.48226105 -8.06646729 6.55480957 C-8.06571323 5.770196 -8.06495918 4.98558243 -8.06418228 4.17719269 C-7.44152734 -0.55197244 -3.88956113 0.00823063 0 0 Z " fill="#2C0056" transform="translate(1460.8125,768.734375)"/>
</svg>
