<?xml version="1.0" encoding="UTF-8" standalone="no"?><!DOCTYPE svg PUBLIC "-//W3C//DTD SVG 1.1//EN" "http://www.w3.org/Graphics/SVG/1.1/DTD/svg11.dtd"><svg width="100%" height="100%" viewBox="0 0 759 1709" version="1.1" xmlns="http://www.w3.org/2000/svg" xmlns:xlink="http://www.w3.org/1999/xlink" xml:space="preserve" xmlns:serif="http://www.serif.com/" style="fill-rule:evenodd;clip-rule:evenodd;stroke-linejoin:round;stroke-miterlimit:2;"><path d="M758.333,941.667l0,766.667l-758.333,0c21.124,-221.804 95.215,-425.337 270.833,-570.833c39.326,-31.587 81.198,-58.445 125,-83.333c2.401,-1.4 4.802,-2.8 7.275,-4.242c102.739,-59.727 235.467,-108.258 355.225,-108.258Z" style="fill:#a301d5;fill-rule:nonzero;"/><path d="M0,0l758.333,0l0,766.667c-102.093,-14.585 -102.093,-14.585 -135.156,-23.698c-3.919,-1.056 -7.837,-2.112 -11.874,-3.2c-64.638,-17.948 -127.27,-40.864 -186.329,-72.799c-8.812,-4.742 -17.695,-9.332 -26.585,-13.926c-66.468,-34.953 -123.604,-80.233 -177.555,-132.21c-2.922,-2.707 -5.844,-5.414 -8.854,-8.203c-103.05,-98.063 -164.939,-238.125 -194.531,-375.13c-0.812,-3.696 -1.625,-7.393 -2.462,-11.201c-8.476,-42.087 -10.857,-82.938 -14.986,-126.299Z" style="fill:#a900d7;fill-rule:nonzero;"/></svg>